<svg width="130" height="30" viewBox="0 0 130 30" fill="none" xmlns="http://www.w3.org/2000/svg"><g id="Group"><g id="Group 20 Copy 11"><g id="Group 3"><mask id="mask0" maskUnits="userSpaceOnUse" x="0" y="0" width="57" height="30"><path id="Clip 2" fill-rule="evenodd" clip-rule="evenodd" d="M0 0h56.25v30H0V0z" fill="#fff"/></mask><g mask="url(#mask0)"><path id="Fill 1" fill-rule="evenodd" clip-rule="evenodd" d="M1.35 30C.604 30 0 29.415 0 28.692V1.308C0 .585.604 0 1.35 0h48.257c3.67 0 6.643 2.881 6.643 6.436v22.256c0 .723-.604 1.308-1.35 1.308H1.35z" fill="#601DC0"/></g></g><path id="Fill 8" fill-rule="evenodd" clip-rule="evenodd" d="M41.395 6.625v2.592h-3.018v14.208H35.72V9.217h-3.042V6.625h8.718z" fill="#fff"/><path id="Fill 10" fill-rule="evenodd" clip-rule="evenodd" d="M45.335 16.561h2.898l-1.437-6.864-1.46 6.864zm4.167 6.864l-.958-4.176h-3.496l-.982 4.176h-2.658l3.688-16.8h3.376l3.688 16.8h-2.658z" fill="#fff"/><path id="Path 2" d="M20.58 6.625h9.649v2.5h-5.48l3.146 5.871-3.163 5.98 5.503.03-.013 2.5-9.625-.052 4.47-8.45-4.488-8.379z" fill="#fff"/><path id="Path 2 Copy 6" d="M11.6 14.19l4.106-7.543 2.485-.003.036 16.716-2.5.006-.02-11.541-4.105 6.979-4.128-6.98v11.54h-2.5V6.646h2.5l4.127 7.543z" fill="#fff"/></g><path id="RATINGS Copy 10" fill-rule="evenodd" clip-rule="evenodd" d="M60 6.47h3.895c.67 0 1.299.077 1.888.232.59.154 1.147.398 1.673.732.526.333.944.813 1.255 1.44.31.626.466 1.37.466 2.233v.928c0 1.822-.797 3.083-2.39 3.783l2.652 7.737h-2.795l-2.223-6.907h-1.768v6.907H60V6.47zm6.572 5.198v-.195c0-.862-.215-1.476-.645-1.843-.43-.366-.972-.549-1.625-.549h-1.65v4.955h1.65c.637 0 1.174-.183 1.613-.55.438-.365.657-.972.657-1.818zm12.276 11.887l-.956-4.247h-3.49l-.979 4.247H70.77L74.45 6.47h3.37l3.68 17.085h-2.652zm-4.158-6.98h2.891l-1.434-6.981-1.457 6.98zM89.857 6.47v2.636h-3.01v14.449h-2.653V9.105h-3.035V6.47h8.698zm1.929 17.085V6.47h2.748v17.085h-2.748zM104.038 6.47h2.557v17.085h-2.605l-4.755-10.886v10.886h-2.581V6.47h2.628l4.756 10.885V6.47zm4.677 11.373v-5.686c0-1.09.135-2.03.406-2.82.271-.789.641-1.399 1.111-1.83a4.64 4.64 0 011.529-.952 5.096 5.096 0 011.781-.305 5 5 0 011.732.293 4.622 4.622 0 011.506.927c.47.423.84 1.025 1.111 1.807.271.78.414 1.708.43 2.782v.244h-2.581v-.17c-.031-1.124-.246-1.945-.645-2.466-.398-.52-.916-.781-1.553-.781-1.45 0-2.175 1.147-2.175 3.441v5.321c0 2.31.725 3.466 2.175 3.466.653 0 1.183-.264 1.589-.793.406-.529.609-1.387.609-2.575v-1.098h-2.126v-2.636h4.707v3.831c0 1.09-.135 2.034-.406 2.832-.271.797-.641 1.411-1.111 1.842a4.48 4.48 0 01-1.518.94 5.1 5.1 0 01-1.744.293 5.096 5.096 0 01-1.781-.305 4.64 4.64 0 01-1.529-.952c-.47-.431-.84-1.041-1.111-1.83-.271-.79-.406-1.73-.406-2.82zm11.439.415h2.557c0 .96.223 1.676.669 2.148a2.18 2.18 0 001.649.708c.749 0 1.323-.212 1.721-.635.398-.423.597-1.017.597-1.781 0-.814-.219-1.404-.657-1.77-.438-.366-1.167-.671-2.186-.915a8.472 8.472 0 01-1.028-.28 5.367 5.367 0 01-1.04-.526 4.167 4.167 0 01-.979-.83c-.263-.309-.486-.728-.67-1.256a5.386 5.386 0 01-.274-1.77c0-.927.131-1.733.394-2.416.263-.684.621-1.212 1.075-1.587.454-.374.944-.65 1.47-.83a5.231 5.231 0 011.697-.268c.605 0 1.167.094 1.685.28a4.452 4.452 0 011.457.892c.454.406.817.98 1.088 1.72.271.74.406 1.615.406 2.624h-2.557c0-.944-.195-1.66-.586-2.148-.39-.488-.884-.732-1.481-.732-.598 0-1.08.203-1.446.61-.366.407-.55.968-.55 1.684 0 .326.056.619.168.879.111.26.239.464.382.61.143.147.346.277.609.39.263.115.474.192.634.232.159.041.374.094.645.16.08.015.135.024.167.024 2.82.618 4.23 2.27 4.23 4.954 0 .977-.131 1.819-.394 2.526-.263.708-.634 1.261-1.112 1.66a4.578 4.578 0 01-1.565.867 6.279 6.279 0 01-1.9.268 5.41 5.41 0 01-1.756-.28 4.715 4.715 0 01-1.542-.892c-.478-.406-.86-.98-1.147-1.72-.286-.74-.43-1.607-.43-2.6z" fill="#000"/></g></svg>