<svg width="38" height="55" viewBox="0 0 38 55" fill="none" xmlns="http://www.w3.org/2000/svg">
<path d="M19 0C8.49571 0 0 8.49571 0 19C0 33.25 19 54.2857 19 54.2857C19 54.2857 38 33.25 38 19C38 8.49571 29.5043 0 19 0ZM5.42857 19C5.42857 11.5086 11.5086 5.42857 19 5.42857C26.4914 5.42857 32.5714 11.5086 32.5714 19C32.5714 26.8171 24.7543 38.5157 19 45.8171C13.3543 38.57 5.42857 26.7357 5.42857 19Z" fill="#601DC0"/>
<path d="M18.9999 25.7863C22.7476 25.7863 25.7857 22.7482 25.7857 19.0006C25.7857 15.2529 22.7476 12.2148 18.9999 12.2148C15.2523 12.2148 12.2142 15.2529 12.2142 19.0006C12.2142 22.7482 15.2523 25.7863 18.9999 25.7863Z" fill="#601DC0"/>
</svg>
