<svg width="522" height="296" viewBox="0 0 522 296" fill="none" xmlns="http://www.w3.org/2000/svg"><circle cx="263" cy="149" r="135" fill="#fff"/><path d="M214.903 158.619c9.363-1.665 14.655-9.989 17.097-20.393-3.935-1.388-13.162-4.578-15.74-5.966-3.257-1.665-2.307-15.26-2.307-15.26l-17.369 4.994v13.18c0 1.248-4.885 2.774-10.584 4.578 5.699 13.456 16.69 21.087 28.903 18.867z" fill="url(#paint0_linear)"/><path d="M214.655 118L197 122.816v10.836c7.448 3.88 15.724 11.104 18.621 24.348 9.517-1.605 14.758-9.632 17.379-19.666-4-1.337-13.379-4.414-16-5.752-3.172-1.472-2.345-14.582-2.345-14.582z" fill="#CB9EAE"/><path d="M192.76 97.399c-2.989 5.977-2.717 26.081 5.705 27.847 7.336 1.63 11.547-5.569 11.547-5.569v-13.313s-4.211-2.173-4.755-7.335c-.407-4.076-2.852-4.483-2.852-4.483s-5.027 2.988-9.645 2.853z" fill="url(#paint1_linear)"/><path d="M105.685 108.402l-.543.272-1.087.543c-.679.408-1.358.679-2.038 1.087-1.222.679-2.58 1.494-3.803 2.173a63.327 63.327 0 00-6.928 4.891 95.078 95.078 0 00-12.09 11.274c-3.668 4.076-6.928 8.423-9.917 13.041-2.988 4.619-5.433 9.373-7.743 14.264-2.309 4.89-4.075 9.916-5.705 14.942-.68 2.581-1.494 5.026-2.038 7.607l-.95 3.804-.68 3.804c-1.222 6.384-1.901 12.769-2.309 19.153v-24.18c.815-4.89 2.445-10.867 4.755-17.659 3.396-10.324 8.558-22.278 14.263-35.183 4.619-10.596 8.558-19.833 12.226-27.44 3.667-7.607 7.335-13.177 10.324-16.03-2.989 2.989-8.422 6.793-14.535 13.177-5.977 6.385-12.498 15.079-17.388 26.218-5.57 12.769-8.422 25.266-9.645 35.998v-52.299c.815-2.989 2.445-6.657 4.755-10.46 3.396-5.977 8.15-12.498 13.04-19.969 3.94-6.113 6.657-12.09 8.966-17.116 2.173-5.026 3.94-8.966 5.434-11.14-1.495 2.174-5.162 4.484-9.51 8.016-4.346 3.531-9.373 8.15-13.448 14.806-5.026 7.88-7.879 16.301-9.101 23.365V75.392c1.358-9.237 4.347-23.093 4.347-39.258 0-17.252-5.162-30.157-5.162-36.134 0 6.113-5.162 19.018-5.162 36.134 0 16.03 2.988 30.021 4.347 39.258v21.735C47 85.445 44.013 71.725 37.9 57.597c-5.298-12.09-12.09-21.599-18.475-28.663C13.177 21.871 7.471 17.388 3.94 14.4c3.396 2.989 7.2 9.238 11.14 17.388 3.939 8.15 8.286 18.339 13.312 29.885 6.113 14.128 11.41 27.169 15.078 38.444 2.446 7.335 3.94 13.991 4.755 19.289v33.689c-.408-4.211-1.087-8.286-1.766-12.362-1.63-9.237-3.94-18.202-6.792-26.896-2.853-8.83-6.113-17.388-10.052-25.81-1.902-4.211-4.076-8.422-6.25-12.498-2.309-4.075-4.754-8.15-7.878-12.497 3.668 4.89 4.211 10.052 3.668 15.078-.272 2.445-.815 4.89-1.494 7.2-.68 2.31-1.63 4.483-2.446 6.52-1.222 2.989-1.086 5.162 0 7.064.951 1.902 2.581 3.396 4.347 4.89 3.396 2.989 7.064 5.706 4.483 9.781-2.445 4.075-5.434 7.879-5.162 12.226.136 2.173.95 4.618 2.989 7.335 2.037 2.853 5.297 5.977 10.052 10.053 2.988 2.581 5.434 5.433 7.743 8.286 2.173 2.853 3.94 5.705 5.434 8.286a77.013 77.013 0 012.988 6.385c0 .136 0 .136.136.136v38.443c-.136-.815-4.347-25.131-18.746-38.579C15.893 153.502 3.26 149.562 0 147.66c3.396 1.902 22.414 25.403 28.663 33.553 9.644 12.498 19.697 28.12 19.697 45.507v52.435h1.494v-65.747c.272-1.494.68-2.989 1.223-4.483 1.086-2.581 2.309-4.89 3.939-7.064 1.63-2.173 3.532-3.939 5.434-5.705 1.901-1.63 3.94-3.124 5.84-4.483 2.718-1.902 3.94-4.075 4.212-6.384.408-2.31-.136-4.755-.407-7.064-.272-1.223-.408-2.445-.544-3.532-.136-1.087-.136-2.309 0-3.26.272-2.038 1.223-3.668 3.532-4.619 4.619-1.766 9.373-2.717 12.362-6.113.815-.815 1.494-1.902 1.901-3.124.544-1.223.951-2.717 1.359-4.483.68-3.532 1.087-8.151 1.63-14.807.68-8.15 4.211-16.165 8.015-21.599 3.667-5.433 7.607-8.558 8.15-8.829l-.815.543z" fill="url(#paint2_linear)"/><path d="M438.091 145.079l.407.272.815.408 1.63.815c.951.543 2.038 1.086 2.989 1.766a77.455 77.455 0 015.434 3.803c3.396 2.717 6.656 5.706 9.508 8.83a91.431 91.431 0 017.743 10.188c2.31 3.532 4.347 7.336 6.113 11.139 1.766 3.804 3.125 7.743 4.483 11.818.544 2.038 1.223 3.94 1.63 5.977l.679 2.989.544 2.988c.951 5.027 1.494 10.053 1.902 15.079v-19.018c-.68-3.803-1.902-8.558-3.668-13.856-2.717-8.15-6.656-17.523-11.139-27.712-3.668-8.286-6.792-15.621-9.645-21.598-2.853-5.978-5.705-10.324-8.15-12.634 2.309 2.31 6.656 5.298 11.41 10.324 4.619 5.026 9.781 11.818 13.72 20.648 4.347 10.053 6.657 19.833 7.607 28.255v-41.024c-.679-2.309-1.901-5.162-3.667-8.15-2.717-4.619-6.385-9.781-10.188-15.758-3.125-4.89-5.298-9.509-7.064-13.449-1.766-3.939-3.125-7.063-4.347-8.83 1.222 1.767 4.075 3.533 7.471 6.385 3.396 2.717 7.336 6.385 10.596 11.547 3.939 6.249 6.249 12.769 7.199 18.339v-15.758c-1.086-7.2-3.396-18.203-3.396-30.836 0-13.584 3.94-23.637 3.94-28.391 0 4.754 3.939 14.942 3.939 28.39 0 12.634-2.309 23.637-3.396 30.837v17.116c1.087-9.237 3.396-19.969 8.287-31.108 4.211-9.509 9.508-16.98 14.535-22.55 4.89-5.57 9.509-9.101 12.09-11.41-2.717 2.309-5.706 7.2-8.83 13.72-3.125 6.384-6.521 14.399-10.46 23.5-4.754 11.139-8.966 21.328-11.818 30.293-1.902 5.841-3.125 11.003-3.804 15.214v26.49c.408-3.261.815-6.521 1.359-9.781 1.222-7.2 3.124-14.263 5.297-21.191 2.174-6.928 4.891-13.585 7.879-20.241 1.495-3.26 3.125-6.52 4.891-9.78 1.901-3.261 3.667-6.385 6.248-9.781-2.852 3.939-3.26 7.879-2.852 11.818a42.724 42.724 0 001.222 5.706c.544 1.766 1.223 3.531 1.902 5.162.951 2.309.815 4.075 0 5.569-.679 1.494-2.038 2.717-3.396 3.804-2.717 2.309-5.57 4.482-3.532 7.743 1.902 3.124 4.211 6.248 4.075 9.644-.136 1.766-.679 3.668-2.309 5.842-1.494 2.173-4.211 4.754-7.879 7.878-2.445 2.038-4.347 4.212-6.113 6.521-1.766 2.173-3.124 4.483-4.211 6.52-1.087 2.038-1.766 3.804-2.309 5.027v30.428c.136-.679 3.396-19.697 14.807-30.293 10.595-9.916 20.512-13.04 23.229-14.535-2.581 1.495-17.66 19.969-22.55 26.354-7.607 9.78-15.486 22.142-15.486 35.726v41.296h-1.087V227.4c-.272-1.223-.543-2.445-.951-3.532-.815-2.038-1.902-3.804-3.124-5.57-1.359-1.63-2.717-3.124-4.211-4.483-1.495-1.358-3.125-2.445-4.619-3.531-2.173-1.495-2.988-3.125-3.26-5.027-.272-1.766.136-3.667.407-5.569l.408-2.853c.136-.951.136-1.766 0-2.581-.136-1.63-.951-2.852-2.853-3.532-3.667-1.358-7.335-2.173-9.78-4.89-.68-.679-1.087-1.494-1.495-2.445a18.19 18.19 0 01-1.086-3.532c-.544-2.717-.815-6.385-1.359-11.547-.543-6.52-3.26-12.633-6.248-16.98-2.989-4.347-5.978-6.656-6.521-6.928l.408.679z" fill="url(#paint3_linear)"/><path d="M181.078 262.311c2.173 9.373 5.57 19.969 8.966 29.885h56.374c1.223-4.075 2.581-8.558 3.668-13.176 6.928-27.033-.408-50.262-6.928-60.858-6.521-10.595-12.226-23.093-2.174-38.579 10.053-15.486 11.004-27.44 11.004-27.44-1.495-5.841-5.977-7.879-17.796-13.448 0 0-.679-.272-1.766-.544-2.445 10.189-7.743 18.339-17.116 19.969-12.226 2.174-23.229-5.298-28.798-18.339-5.434 1.631-11.411 3.261-14.264 4.891 0 0 14.943 32.466 17.796 50.805 2.581 18.203-15.894 38.035-8.966 66.834z" fill="url(#paint4_linear)"/><path d="M224.819 198.057c-7.743 2.31-15.079 5.027-18.882 5.027-7.607 0-19.018-10.732-24.316-4.212-5.298 6.521-6.113 10.868-1.902 13.856 4.211 2.853 17.524-1.086 23.908.136 2.853.544 12.498 1.087 22.822.951.815-4.075.679-11.682-1.63-15.758z" fill="url(#paint5_linear)"/><path d="M252.123 152.143c-1.766-7.199-16.573 5.977-12.905 18.067 3.124 10.324 2.038 24.18 2.038 24.18l14.535 14.671c4.89-5.977-2.174-51.076-3.668-56.918z" fill="url(#paint6_linear)"/><path d="M246.01 194.391c-5.57-.816-13.584 1.222-21.191 3.667 2.309 4.076 2.445 11.683 1.63 15.758 12.769-.136 26.489-1.358 29.206-4.755 0 0 6.656-12.225-9.645-14.67z" fill="url(#paint7_linear)"/><path d="M179.72 195.341c-3.804-7.743-6.385-17.388-8.558-22.822-4.212-10.324-4.891-24.723.95-27.983 10.732-5.57 15.351 13.448 16.03 18.882.679 5.434 2.173 18.339 6.249 22.957l-14.671 8.966z" fill="url(#paint8_linear)"/><path d="M190.043 177.139c-3.939 5.433-10.188 10.188-10.46 18.203 3.397 6.792 7.743 12.089 13.856 11.41 8.966-.951 12.09-11.546 13.177-21.191-5.977.407-13.584-4.347-16.573-8.422z" fill="url(#paint9_linear)"/><path d="M203.627 127.963c-1.766.815-7.743 6.113-7.743 7.336 0 1.358 2.717 11.275 2.717 14.263 0 2.989-2.717 16.301-6.385 24.044-.543 1.223-1.222 2.309-2.037 3.396 2.988 4.075 10.595 8.83 16.572 8.287.408-4.347.544-8.423.544-11.411 0 0 .679-22.142 1.63-23.637.951-1.494.951-3.803.951-5.841v-4.075s1.358-.136 1.494-2.445v-.272c-.136-2.445-5.977-10.324-7.743-9.645z" fill="url(#paint10_linear)"/><path d="M350.336 137.744v64.525s21.464.679 20.92 0c-.679-.679 0-30.021 0-30.021l-20.92-34.504z" fill="url(#paint11_linear)"/><path d="M392.991 209.197c1.766 12.09.679 25.81 0 30.972-.679 5.162-16.029 51.62-16.029 51.62h37.356l10.324-49.174-13.584-37.629-18.067 4.211z" fill="url(#paint12_linear)"/><path d="M392.992 209.197c1.765 12.09.679 25.81 0 30.972-.68 5.162-19.018 52.028-19.018 52.028h40.345l10.324-49.582-13.585-37.629-18.066 4.211z" fill="url(#paint13_linear)"/><path d="M436.868 196.428c5.434 17.252 30.157 22.821 23.365 50.669-4.891 20.104-14.943 45.235-14.943 45.235h-46.594s14.671-43.741 14.671-49.582c0-5.841-9.237-35.591-9.237-35.591l32.738-10.731z" fill="url(#paint14_linear)"/><path d="M357.944 123.209c-5.433 2.581-10.46 14.263-5.433 25.267 5.026 11.003 5.705 8.965 7.607 17.659 1.901 8.558 1.222 13.313 16.844 24.044 15.758 10.732 15.214 13.584 16.029 19.018.68 5.434 44.964 4.347 44.285-16.165-.679-20.512.407-44.149-12.769-55.288-13.177-11.275-66.563-14.535-66.563-14.535z" fill="url(#paint15_linear)"/><path d="M352.375 97.807v61.536s22.278-11.954 22.142-23.636c-.136-11.683-10.053-37.764-10.053-37.764h-12.089v-.136z" fill="url(#paint16_linear)"/><path d="M368.132 134.756s2.988 4.754 3.939 6.928c.951 2.037-3.532 11.274-2.037 19.017 1.494 7.879 11.139 6.521 13.312 0 .679-1.901 2.445-15.893 2.445-15.893v-22.957l-17.659 12.905z" fill="url(#paint17_linear)"/><path d="M372.072 141.548c6.248-7.064 12.769 22.686 2.445 24.18h.136l1.494.136c2.989 0 6.249-2.038 7.335-5.434.68-1.902 2.446-15.894 2.446-15.894v-22.957l-17.66 12.905c-.136.272 2.853 5.026 3.804 7.064z" fill="#CB9EAE"/><path d="M355.091 96.04c-2.988 18.883.272 36.407 9.373 38.444 9.102 2.038 22.143-7.879 22.143-16.708 0-8.83 8.829-31.787-1.223-36.95-9.916-5.297-28.391 3.125-30.293 15.215z" fill="url(#paint18_linear)"/><path d="M362.698 94.275s-4.754 3.94-8.286 6.113c-3.532 2.038-2.581-9.917 4.075-15.486 6.792-5.57 15.622-10.46 19.29-7.2 0 0 11.275-3.124 18.067 8.422 6.792 11.547 7.335 21.871 9.509 24.724 2.173 2.852 5.705 4.618 4.075 10.052 0 0 11.954-2.445 13.856 5.841 1.766 8.287 1.222 11.003 1.222 11.003s-3.667-2.852-11.41-5.569c0 0-5.162 4.075-10.053 4.075-4.89 0-11.139 19.833-19.697 19.833l-.136-47.273c0-.136-19.561-2.581-20.512-14.535z" fill="url(#paint19_linear)"/><path d="M253.209 194.798c-22.685 23.636-42.111 95.633-42.111 95.633h32.466l20.377-47.817-10.732-47.816z" fill="url(#paint20_linear)"/><path d="M371.257 198.737c-4.754-5.433-30.021-23.093-62.215-21.191-28.391 1.766-51.349 10.46-55.832 17.252-3.26 5.026 3.94 38.715 8.83 52.027 5.026 13.449 7.2 27.712 7.2 39.938 0 0 80.282-.408 80.69 0 .407.407 9.916-29.614 11.275-44.556 1.358-14.943-1.494-31.516 10.052-43.47z" fill="url(#paint21_linear)"/><path d="M327.787 149.562s.408 24.995 0 32.467c-.407 7.471-11.954 14.127-16.165 14.399-4.347.136-13.72-6.113-15.214-16.709V157.17l31.379-7.608z" fill="url(#paint22_linear)"/><path d="M327.923 163.147c0-7.2-.136-13.585-.136-13.585l-31.515 7.472v18.474c2.581 11.547 20.105 8.423 24.18-2.581 2.445-6.248 4.483-8.014 7.471-9.78z" fill="#CB9EAE"/><path d="M287.985 139.918c1.223 18.338 8.694 35.998 20.377 34.096 14.67-2.309 19.153-24.587 18.474-36.677-.543-12.09-7.471-19.697-17.931-19.697-9.917.135-21.871 6.792-20.92 22.278z" fill="url(#paint23_linear)"/><path d="M330.368 146.031c-.815 3.667-2.581 6.384-3.94 6.113-1.358-.272-1.902-3.396-1.087-7.064s2.581-6.385 3.94-6.113c1.358.272 1.902 3.396 1.087 7.064z" fill="url(#paint24_linear)"/><path d="M288.257 142.77c-2.173-3.396-2.445-4.754-2.173-10.46.136-5.705 4.89-5.841 4.89-8.286-.136-2.445 2.989-8.965 15.622-9.509 12.633-.543 11.818 5.298 15.758 5.706 3.939.407 9.916 4.346 7.064 18.746 0 0-3.396.271-4.755 7.199-.136.544-.815.68-1.087.272-.407-.543-.815-1.494-1.222-2.717-.951-3.532-4.755 1.766-5.434-5.162-.543-4.89-12.497 4.075-21.463-3.939 0 0-1.358 1.766-5.162 1.63-2.309.136-2.038 6.52-2.038 6.52z" fill="#601DC0"/><path d="M296.272 208.926s1.087 1.358 2.989-1.63c1.901-2.989 8.558-11.954 10.867-11.139-4.619-.951-12.497-7.064-13.856-16.573v-.815c-3.668.543-7.335 1.087-10.596 1.902-.95 5.297 2.989 22.414 10.596 28.255zm31.516-26.897c-.408 6.52-9.102 12.362-14.264 13.992 2.445-.951 11.275 10.731 12.769 13.312 1.495 2.581 4.347-.951 7.2-8.015 2.038-5.162 5.162-14.127 3.804-20.512-2.989-.815-6.113-1.494-9.509-2.173.136 1.358.136 2.445 0 3.396z" fill="#999"/><path d="M296.272 179.583v-5.434c-4.754 2.038-9.101 3.804-9.509 6.521-.951 5.298 3.26 20.648 9.509 26.082 0 0 1.087 1.358 2.989-1.631 1.901-2.988 8.558-9.78 10.867-8.829-4.619-1.087-12.498-7.064-13.856-16.709z" fill="url(#paint25_linear)"/><path d="M335.666 178.633c-1.358-2.989-5.569-5.298-7.743-6.385 0 3.939 0 7.607-.136 9.645-.407 6.52-9.101 12.361-14.263 13.992 2.445-.951 11.275 8.422 12.769 11.003 1.494 2.581 3.396-.408 6.52-7.472 3.261-7.063 5.027-15.893 2.853-20.783z" fill="url(#paint26_linear)"/><path d="M386.879 271.82c0-20.648-5.978-62.215-15.622-73.083 0 0-14.943 8.015-19.697 33.417-1.359 7.608.95 29.206 1.63 38.444l33.689 1.222z" fill="url(#paint27_linear)"/><path d="M328.466 292.196h45.371c6.792 0 13.992-5.433 12.905-20.376-1.086-14.943-25.402-12.769-33.688-1.358l-24.995 3.803.407 17.931z" fill="url(#paint28_linear)"/><path d="M305.645 291.381l2.173-2.037 6.521 2.309c1.086.407 2.309.543 3.531.543h12.905s6.113-1.358 6.385-8.558c.136-7.199-5.977-9.373-8.694-9.373h-14.263c-.679 0-1.359-.136-2.174-.272l-10.052-2.173c-1.494-.272-2.989 0-4.347.679l-5.705 3.26c-1.087.68-2.174 1.359-2.989 2.31l-10.46 10.459c-1.358 1.359-.407 3.532 1.495 3.532h23.5c.679.136 1.494-.135 2.174-.679z" fill="url(#paint29_linear)"/><path d="M426.001 140.325c-9.781-5.57-26.761 10.324-23.094 29.342 3.668 18.882-17.116 42.383-17.116 42.383s-23.5 9.509-33.009 11.274c2.309 3.261 4.89 8.015 5.977 14.128 15.486-1.222 37.628-4.483 46.594-11.954 13.584-11.275 27.983-52.978 27.983-66.155.136-15.486-7.335-19.018-7.335-19.018z" fill="url(#paint30_linear)"/><path d="M350.337 223.46h-30.429s-21.734 7.336-22.278 8.558c-.543 1.223-1.63 8.694 0 10.46s12.769 4.89 15.486 4.347c2.853-.543 24.859-8.694 29.885-8.694 1.766 0 7.879-.136 15.758-.815-1.222-6.113-3.803-11.003-5.977-14.128-.951.136-1.766.272-2.445.272z" fill="url(#paint31_linear)"/><path d="M155.268 203.22s7.607 5.977 15.486 0c7.743-5.977 2.445-16.301 2.445-16.301l-17.795 9.509v6.792h-.136z" fill="url(#paint32_linear)"/><path d="M166.271 146.71v45.1H151.6v-42.655l14.671-2.445z" fill="url(#paint33_linear)"/><path d="M142.362 258.915c-1.358 7.471-9.373 18.067-14.535 33.417h29.206c2.853-18.339 5.298-42.926 1.359-64.933h-16.845c1.495 7.336 2.174 24.316.815 31.516z" fill="url(#paint34_linear)"/><path d="M114.379 257.285s3.396 16.437 5.706 35.047h7.743c5.162-15.214 13.176-25.81 14.535-33.417 1.358-7.064.679-24.044-.815-31.516h-26.354l-.815 29.886z" fill="url(#paint35_linear)"/><path d="M141.548 227.4c-.136-.951-.408-1.766-.68-2.309H90.199c.68 24.451 2.581 48.631 3.804 67.242h33.824c5.162-15.215 13.177-25.81 14.536-33.418 1.358-7.199.679-24.179-.815-31.515z" fill="url(#paint36_linear)"/><path d="M124.704 106.5c-30.021-8.015-50.262 5.298-53.522 24.587-2.989 17.524 19.018 71.996 19.018 93.867 0 0 35.59 18.339 68.192 2.309 0 0-4.89-23.365 0-44.013 4.891-20.648 11.411-32.466 5.842-47.273-4.891-12.905-25.539-25.674-39.53-29.477z" fill="url(#paint37_linear)"/><path d="M135.978 86.667s-11.275 14.263-16.029 18.746c-4.755 4.483 4.075 13.856 10.731 17.795 4.483 2.581 13.72 5.434 11.003-2.581 0 0-1.494-4.482 5.977-11.003-.135 0-8.558-24.995-11.682-22.957z" fill="url(#paint38_linear)"/><path d="M147.525 109.625s-3.94-11.547-7.336-18.339l-3.667 1.766c-4.347 8.83-5.026 25.403 5.026 27.576 0 0-1.63-4.619 5.977-11.003z" fill="#CB9EAE"/><path d="M140.325 84.086c.951-5.433-3.939-5.84-5.434-1.358-1.766 5.162.136 8.83 2.174 7.607 0 0-3.804 11.682.951 18.746 4.89 7.064 11.139 4.347 18.882-3.26 6.656-6.52 11.003-14.67 11.682-17.66 1.766-8.014-6.656-14.67-14.535-14.127-9.509.407-13.72 10.052-13.72 10.052z" fill="url(#paint39_linear)"/><path d="M140.325 84.087c-.271 3.26.272 5.705 2.038 4.618 1.902-1.087 6.384-7.471 10.324-2.852 4.075 4.618 7.335 8.965 14.535 8.15 9.237-.95 11.411-13.584 3.26-15.893 0 0 3.532-4.347-2.717-6.385-5.841-1.902-5.977-.68-10.052-5.298-2.309-2.58-16.301-1.222-20.105 13.177 0 .136 3.261-.408 2.717 4.483z" fill="url(#paint40_linear)"/><path d="M94.41 176.866c.272-6.249 4.212-22.414 9.645-32.874 5.434-10.324 2.717-23.636-4.618-28.934-7.336-5.162-17.66-4.211-22.55 2.988-13.177 19.426-9.373 63.031-2.174 77.838 1.359 2.988 4.755 4.89 9.374 5.977-10.053-4.483-.136-27.304 10.324-24.995z" fill="url(#paint41_linear)"/><path d="M133.125 194.662l19.697-23.773c.815-1.087 2.174-1.494 3.532-1.087l33.417 9.238c.815.271 1.087 1.222.408 1.902l-25.267 22.821c-.543.543-1.222.679-2.037.543l-28.935-6.792c-1.222-.543-1.63-1.902-.815-2.852z" fill="url(#paint42_linear)"/><path d="M156.762 185.289c-1.087-3.261-4.483-5.706-6.385-6.249-1.358-.408-11.682-.272-17.252-.136-2.173 0-4.211.679-6.113 1.766-1.765 1.087-3.939 2.309-5.026 2.309h-17.387s-4.755-3.668-10.325-6.113c-10.46-2.445-20.376 20.377-10.46 24.995 16.845 4.211 49.991-1.902 63.846-6.656 3.125-1.087 5.842-2.989 7.743-5.705 1.087-1.359 1.766-2.989 1.359-4.211z" fill="url(#paint43_linear)"/><path d="M38.715 292.197l55.967-.272 55.967-.136 111.798-.271 111.934.271 55.967.136 55.831.272-55.831.407-55.967.136-111.934.136-111.798-.272H94.682l-55.967-.407z" fill="#390F76"/><path d="M274.944 296h47.681a4.87 4.87 0 004.89-4.89c0-1.222-.951-2.309-2.309-2.309h-50.398c-1.222 0-2.309.951-2.309 2.309v2.717c.136 1.223 1.223 2.173 2.445 2.173z" fill="url(#paint44_linear)"/><path d="M190.451 296h99.572c3.803 0 6.656-3.668 5.569-7.335l-17.523-63.982c-1.087-4.211-4.891-7.064-9.238-7.064h-99.572c-3.803 0-6.656 3.668-5.569 7.336l17.523 63.981c1.223 4.211 5.026 7.064 9.238 7.064z" fill="url(#paint45_linear)"/><path d="M482.783 246.418c-1.494.407-3.532 2.038-5.841 4.347-2.31 2.173-4.891 4.754-8.015 7.2-1.902 1.494-3.804 2.852-5.705 4.211-1.766 1.358-3.532 2.581-5.162 3.939-3.125 2.581-5.57 5.026-6.385 6.792.815-1.902 1.223-5.298 2.717-9.373a37.734 37.734 0 013.396-6.52c1.494-2.174 3.396-4.211 5.705-6.113 3.94-2.853 8.151-3.94 11.683-4.211 3.396-.272 6.113.135 7.607-.272z" fill="url(#paint46_linear)"/><path d="M450.453 271.412c.136-1.902-.815-4.89-1.359-8.83-.679-3.939-.95-8.83.272-14.127 1.494-6.521 4.347-11.955 7.064-16.301 2.717-4.347 5.298-7.472 6.249-9.645-.951 2.173-1.495 6.248-2.038 11.139-.543 4.89-1.223 10.731-2.581 16.708-1.087 5.027-2.989 9.238-4.483 12.77-1.766 3.531-2.988 6.384-3.124 8.286z" fill="url(#paint47_linear)"/><path d="M422.741 239.354c1.494.679 4.347.679 7.879 1.765 3.532.951 7.743 2.989 11.275 6.793 4.211 4.754 6.248 10.188 7.063 14.806.951 4.619.68 8.287 1.087 10.324-.407-2.173-2.445-5.297-5.162-8.558-2.717-3.396-6.249-6.792-9.645-10.731-2.852-3.125-5.026-6.385-7.063-9.102-2.038-2.581-3.94-4.618-5.434-5.297z" fill="url(#paint48_linear)"/><path d="M468.247 260.682H438.77c-1.495 0-2.717 1.358-2.581 2.852l3.531 30.021c.136 1.359 1.223 2.31 2.581 2.31h22.414c1.359 0 2.446-.951 2.581-2.31l3.532-30.021c.136-1.494-1.086-2.852-2.581-2.852z" fill="url(#paint49_linear)"/><path d="M434.831 260.817l1.358 11.139c.136.68.544 1.087 1.223 1.087h32.33c.679 0 1.087-.407 1.223-1.087l1.358-11.139c.136-.679-.543-1.358-1.222-1.358h-35.048c-.815 0-1.358.679-1.222 1.358z" fill="url(#paint50_linear)"/><path d="M227.4 128.778c-7.335-4.618.815-29.75-11.411-39.394-10.052-8.015-26.081-2.037-26.081 13.041v35.998c3.939-1.222 6.928-2.445 6.928-3.396v-10.596c-6.657-4.211-6.792-21.599-3.94-27.168 4.619.136 9.645-2.853 9.645-2.853s2.445.408 2.853 4.483c.543 5.162 4.754 7.336 4.754 7.336v13.312c0 12.498 2.989 26.218 10.188 27.033 7.2.815 8.423-8.694 13.856-8.015-.136.136.408-5.162-6.792-9.781zM220 247h9.649v2.5h-4.478l4.145 5.871-2.164 5.981 6.504.03-.013 2.5-9.625-.053 2.471-8.45L220 247z" fill="#601DC0"/><defs><linearGradient id="paint0_linear" x1="223.81" y1="125.681" x2="199.125" y2="147.411" gradientUnits="userSpaceOnUse"><stop stop-color="#F6B3B5"/><stop offset="1" stop-color="#FAD1D3"/></linearGradient><linearGradient id="paint1_linear" x1="205.857" y1="91.071" x2="194.225" y2="135.779" gradientUnits="userSpaceOnUse"><stop stop-color="#F6B3B5"/><stop offset="1" stop-color="#FAD1D3"/></linearGradient><linearGradient id="paint2_linear" x1="53.278" y1="-75.053" x2="53.278" y2="409.08" gradientUnits="userSpaceOnUse"><stop stop-color="#D7FFE3"/><stop offset=".48" stop-color="#C9F1D5"/><stop offset=".991" stop-color="#999"/></linearGradient><linearGradient id="paint3_linear" x1="479.612" y1=".505" x2="479.612" y2="381.923" gradientUnits="userSpaceOnUse"><stop stop-color="#D7FFE3"/><stop offset=".48" stop-color="#C9F1D5"/><stop offset=".991" stop-color="#999"/></linearGradient><linearGradient id="paint4_linear" x1="212.501" y1="106.946" x2="212.501" y2="291.663" gradientUnits="userSpaceOnUse"><stop stop-color="#999"/><stop offset="1" stop-color="#F7F7F7"/></linearGradient><linearGradient id="paint5_linear" x1="195.251" y1="194.714" x2="205.33" y2="210.912" gradientUnits="userSpaceOnUse"><stop stop-color="#F6B3B5"/><stop offset="1" stop-color="#FAD1D3"/></linearGradient><linearGradient id="paint6_linear" x1="248.048" y1="138.152" x2="248.048" y2="208.857" gradientUnits="userSpaceOnUse"><stop stop-color="#999"/><stop offset="1" stop-color="#F7F7F7"/></linearGradient><linearGradient id="paint7_linear" x1="246" y1="249" x2="236" y2="187" gradientUnits="userSpaceOnUse"><stop stop-color="#999"/><stop offset="1" stop-color="#F7F7F7"/></linearGradient><linearGradient id="paint8_linear" x1="181.107" y1="133.029" x2="181.107" y2="195.161" gradientUnits="userSpaceOnUse"><stop stop-color="#999"/><stop offset="1" stop-color="#F7F7F7"/></linearGradient><linearGradient id="paint9_linear" x1="193.078" y1="171.128" x2="193.078" y2="206.708" gradientUnits="userSpaceOnUse"><stop stop-color="#999"/><stop offset="1" stop-color="#F7F7F7"/></linearGradient><linearGradient id="paint10_linear" x1="182.203" y1="156.709" x2="213.416" y2="156.709" gradientUnits="userSpaceOnUse"><stop stop-color="#F6B3B5"/><stop offset="1" stop-color="#FAD1D3"/></linearGradient><linearGradient id="paint11_linear" x1="360.677" y1="217.853" x2="362.64" y2="119.566" gradientUnits="userSpaceOnUse"><stop stop-color="#601DC0"/><stop offset=".279" stop-color="#823CE7"/><stop offset=".604" stop-color="#9A5DF2"/><stop offset=".991" stop-color="#601DC0"/></linearGradient><linearGradient id="paint12_linear" x1="400.415" y1="312.301" x2="401.448" y2="180.864" gradientUnits="userSpaceOnUse"><stop stop-color="#001462"/><stop offset=".069" stop-color="#081E71"/><stop offset=".252" stop-color="#193595"/><stop offset=".437" stop-color="#2748B0"/><stop offset=".623" stop-color="#3055C4"/><stop offset=".81" stop-color="#365CD0"/><stop offset="1" stop-color="#385FD4"/></linearGradient><linearGradient id="paint13_linear" x1="399.268" y1="187.32" x2="399" y2="365" gradientUnits="userSpaceOnUse"><stop stop-color="#999"/><stop offset="1" stop-color="#F7F7F7"/></linearGradient><linearGradient id="paint14_linear" x1="430" y1="177" x2="448.5" y2="271" gradientUnits="userSpaceOnUse"><stop stop-color="#999"/><stop offset="1" stop-color="#F7F7F7"/></linearGradient><linearGradient id="paint15_linear" x1="393.347" y1="232.916" x2="394.234" y2="98.266" gradientUnits="userSpaceOnUse"><stop stop-color="#601DC0"/><stop offset=".279" stop-color="#823CE7"/><stop offset=".604" stop-color="#9A5DF2"/><stop offset=".991" stop-color="#601DC0"/></linearGradient><linearGradient id="paint16_linear" x1="363.452" y1="81.262" x2="363.452" y2="187.984" gradientUnits="userSpaceOnUse"><stop stop-color="#2F2F2F"/><stop offset=".48" stop-color="#414141"/><stop offset=".991" stop-color="#601DC0"/></linearGradient><linearGradient id="paint17_linear" x1="387.369" y1="140.222" x2="365.411" y2="155.701" gradientUnits="userSpaceOnUse"><stop stop-color="#F6B3B5"/><stop offset=".991" stop-color="#FAD1D3"/></linearGradient><linearGradient id="paint18_linear" x1="374.317" y1="103.272" x2="357.758" y2="123.07" gradientUnits="userSpaceOnUse"><stop stop-color="#F6B3B5"/><stop offset=".991" stop-color="#FAD1D3"/></linearGradient><linearGradient id="paint19_linear" x1="388.509" y1="55.299" x2="388.509" y2="193.051" gradientUnits="userSpaceOnUse"><stop stop-color="#2F2F2F"/><stop offset=".48" stop-color="#414141"/><stop offset=".991" stop-color="#601DC0"/></linearGradient><linearGradient id="paint20_linear" x1="221.242" y1="206.919" x2="258.04" y2="294.166" gradientUnits="userSpaceOnUse"><stop stop-color="#B9B9B9"/><stop offset="1" stop-color="#999"/></linearGradient><linearGradient id="paint21_linear" x1="311.856" y1="148" x2="311.856" y2="337.667" gradientUnits="userSpaceOnUse"><stop stop-color="#E8E8E8"/><stop offset=".48" stop-color="#999"/><stop offset=".991" stop-color="#601DC0"/></linearGradient><linearGradient id="paint22_linear" x1="332.891" y1="165.52" x2="291.855" y2="181.718" gradientUnits="userSpaceOnUse"><stop stop-color="#F6B3B5"/><stop offset=".991" stop-color="#FAD1D3"/></linearGradient><linearGradient id="paint23_linear" x1="310.083" y1="111.877" x2="304.324" y2="172.351" gradientUnits="userSpaceOnUse"><stop stop-color="#F6B3B5"/><stop offset=".991" stop-color="#FAD1D3"/></linearGradient><linearGradient id="paint24_linear" x1="304.214" y1="228.243" x2="329.78" y2="138.76" gradientUnits="userSpaceOnUse"><stop stop-color="#8CC6FF"/><stop offset="1" stop-color="#F6B3B5"/></linearGradient><linearGradient id="paint25_linear" x1="291.14" y1="178.321" x2="301.572" y2="210.281" gradientUnits="userSpaceOnUse"><stop stop-color="#B9B9B9"/><stop offset="1" stop-color="#999"/></linearGradient><linearGradient id="paint26_linear" x1="317.959" y1="176.755" x2="330.102" y2="210.608" gradientUnits="userSpaceOnUse"><stop stop-color="#B9B9B9"/><stop offset="1" stop-color="#999"/></linearGradient><linearGradient id="paint27_linear" x1="358" y1="208" x2="388.5" y2="272" gradientUnits="userSpaceOnUse"><stop stop-color="#B9B9B9"/><stop offset="1" stop-color="#999"/></linearGradient><linearGradient id="paint28_linear" x1="333" y1="194.5" x2="377.5" y2="289" gradientUnits="userSpaceOnUse"><stop stop-color="#B9B9B9"/><stop offset="1" stop-color="#999"/></linearGradient><linearGradient id="paint29_linear" x1="307.475" y1="293.723" x2="307.475" y2="268.502" gradientUnits="userSpaceOnUse"><stop stop-color="#F6B3B5"/><stop offset=".991" stop-color="#FAD1D3"/></linearGradient><linearGradient id="paint30_linear" x1="392.583" y1="260.615" x2="393.755" y2="111.595" gradientUnits="userSpaceOnUse"><stop stop-color="#601DC0"/><stop offset=".279" stop-color="#823CE7"/><stop offset=".604" stop-color="#9A5DF2"/><stop offset=".991" stop-color="#601DC0"/></linearGradient><linearGradient id="paint31_linear" x1="334.017" y1="256.519" x2="322.499" y2="223.042" gradientUnits="userSpaceOnUse"><stop stop-color="#F6B3B5"/><stop offset=".991" stop-color="#FAD1D3"/></linearGradient><linearGradient id="paint32_linear" x1="165.123" y1="181.822" x2="165.123" y2="214.7" gradientUnits="userSpaceOnUse"><stop stop-color="#E8E8E8"/><stop offset=".48" stop-color="#999"/><stop offset=".991" stop-color="#601DC0"/></linearGradient><linearGradient id="paint33_linear" x1="158.94" y1="134.585" x2="158.94" y2="212.8" gradientUnits="userSpaceOnUse"><stop stop-color="#E8E8E8"/><stop offset=".48" stop-color="#999"/><stop offset=".991" stop-color="#601DC0"/></linearGradient><linearGradient id="paint34_linear" x1="144.11" y1="214.246" x2="143.88" y2="346.537" gradientUnits="userSpaceOnUse"><stop stop-color="#999"/><stop offset="1" stop-color="#F7F7F7"/></linearGradient><linearGradient id="paint35_linear" x1="52.39" y1="244.754" x2="286.013" y2="289.602" gradientUnits="userSpaceOnUse"><stop offset=".105" stop-color="#001462"/><stop offset=".297" stop-color="#142E8A"/><stop offset=".49" stop-color="#2343AA"/><stop offset=".675" stop-color="#2F53C1"/><stop offset=".849" stop-color="#365CCF"/><stop offset="1" stop-color="#385FD4"/></linearGradient><linearGradient id="paint36_linear" x1="116.605" y1="211.469" x2="116.605" y2="292.1" gradientUnits="userSpaceOnUse"><stop stop-color="#999"/><stop offset="1" stop-color="#F7F7F7"/></linearGradient><linearGradient id="paint37_linear" x1="118.662" y1="69.254" x2="118.662" y2="294.203" gradientUnits="userSpaceOnUse"><stop stop-color="#E8E8E8"/><stop offset=".48" stop-color="#999"/><stop offset=".991" stop-color="#601DC0"/></linearGradient><linearGradient id="paint38_linear" x1="130.487" y1="89.082" x2="135.212" y2="127.429" gradientUnits="userSpaceOnUse"><stop stop-color="#F6B3B5"/><stop offset="1" stop-color="#FAD1D3"/></linearGradient><linearGradient id="paint39_linear" x1="169.108" y1="67.817" x2="133.669" y2="107.981" gradientUnits="userSpaceOnUse"><stop stop-color="#F6B3B5"/><stop offset="1" stop-color="#FAD1D3"/></linearGradient><linearGradient id="paint40_linear" x1="156.579" y1="57.648" x2="156.579" y2="107.474" gradientUnits="userSpaceOnUse"><stop stop-color="#2F2F2F"/><stop offset=".48" stop-color="#414141"/><stop offset=".991" stop-color="#601DC0"/></linearGradient><linearGradient id="paint41_linear" x1="87.543" y1="87.585" x2="87.543" y2="243.778" gradientUnits="userSpaceOnUse"><stop stop-color="#E8E8E8"/><stop offset=".48" stop-color="#999"/><stop offset=".991" stop-color="#601DC0"/></linearGradient><linearGradient id="paint42_linear" x1="162" y1="158" x2="162.672" y2="213.492" gradientUnits="userSpaceOnUse"><stop stop-color="#9A5DF2"/><stop offset=".991" stop-color="#420B92"/></linearGradient><linearGradient id="paint43_linear" x1="118.348" y1="202.291" x2="118.348" y2="178.149" gradientUnits="userSpaceOnUse"><stop stop-color="#F6B3B5"/><stop offset="1" stop-color="#FAD1D3"/></linearGradient><linearGradient id="paint44_linear" x1="299.681" y1="296" x2="299.662" y2="288.836" gradientUnits="userSpaceOnUse"><stop stop-color="#410C8D"/><stop offset=".279" stop-color="#823CE7"/><stop offset=".991" stop-color="#601DC0"/></linearGradient><linearGradient id="paint45_linear" x1="228.858" y1="296" x2="227.892" y2="218.012" gradientUnits="userSpaceOnUse"><stop stop-color="#410C8D"/><stop offset=".279" stop-color="#823CE7"/><stop offset=".991" stop-color="#601DC0"/></linearGradient><linearGradient id="paint46_linear" x1="467.045" y1="279.152" x2="432.597" y2="263.088" gradientUnits="userSpaceOnUse"><stop stop-color="#601DC0"/><stop offset=".279" stop-color="#823CE7"/><stop offset=".604" stop-color="#9A5DF2"/><stop offset=".991" stop-color="#601DC0"/></linearGradient><linearGradient id="paint47_linear" x1="455.514" y1="282.94" x2="436.671" y2="280.774" gradientUnits="userSpaceOnUse"><stop stop-color="#601DC0"/><stop offset=".279" stop-color="#823CE7"/><stop offset=".604" stop-color="#9A5DF2"/><stop offset=".991" stop-color="#601DC0"/></linearGradient><linearGradient id="paint48_linear" x1="436.231" y1="280.984" x2="402.875" y2="270.249" gradientUnits="userSpaceOnUse"><stop stop-color="#601DC0"/><stop offset=".279" stop-color="#823CE7"/><stop offset=".604" stop-color="#9A5DF2"/><stop offset=".991" stop-color="#601DC0"/></linearGradient><linearGradient id="paint49_linear" x1="471" y1="302.5" x2="444.214" y2="266.722" gradientUnits="userSpaceOnUse"><stop stop-color="#32B75B"/><stop offset="1" stop-color="#CCF4D8"/></linearGradient><linearGradient id="paint50_linear" x1="472.516" y1="275.605" x2="467.144" y2="255.482" gradientUnits="userSpaceOnUse"><stop stop-color="#32B75B"/><stop offset="1" stop-color="#CCF4D8"/></linearGradient></defs></svg>