<svg width="522" height="296" viewBox="0 0 522 296" fill="none" xmlns="http://www.w3.org/2000/svg">
<circle cx="263" cy="149" r="135" fill="white"/>
<path d="M214.903 158.619C224.266 156.954 229.558 148.63 232 138.226C228.065 136.838 218.838 133.648 216.26 132.26C213.003 130.595 213.953 117 213.953 117L196.584 121.994C196.584 128.098 196.584 132.815 196.584 135.174C196.584 136.422 191.699 137.948 186 139.752C191.699 153.208 202.69 160.839 214.903 158.619Z" fill="url(#paint0_linear)"/>
<path d="M214.655 118L197 122.816C197 127.365 197 131.11 197 133.652C204.448 137.532 212.724 144.756 215.621 158C225.138 156.395 230.379 148.368 233 138.334C229 136.997 219.621 133.92 217 132.582C213.828 131.11 214.655 118 214.655 118Z" fill="#CB9EAE"/>
<path d="M192.76 97.3986C189.771 103.376 190.043 123.48 198.465 125.246C205.801 126.876 210.012 119.677 210.012 119.677V106.364C210.012 106.364 205.801 104.191 205.257 99.0287C204.85 94.9534 202.405 94.5459 202.405 94.5459C202.405 94.5459 197.378 97.5344 192.76 97.3986Z" fill="url(#paint1_linear)"/>
<path d="M105.685 108.402L105.142 108.674L104.055 109.217C103.376 109.625 102.697 109.896 102.017 110.304C100.795 110.983 99.4364 111.798 98.2138 112.477C95.7686 113.971 93.4593 115.602 91.2859 117.368C86.9389 120.764 82.8636 124.567 79.1959 128.642C75.5282 132.718 72.268 137.065 69.2794 141.683C66.2909 146.302 63.8458 151.056 61.5364 155.947C59.2271 160.837 57.4612 165.863 55.8311 170.889C55.1519 173.47 54.3368 175.915 53.7935 178.496L52.8426 182.3L52.1634 186.104C50.9408 192.488 50.2616 198.873 49.854 205.257V181.077C50.6691 176.187 52.2992 170.21 54.6085 163.418C58.0046 153.094 63.1666 141.14 68.8719 128.235C73.4906 117.639 77.43 108.402 81.0977 100.795C84.7654 93.1877 88.4332 87.6181 91.4217 84.7655C88.4332 87.754 82.9995 91.5576 76.8866 97.9421C70.9096 104.327 64.3891 113.021 59.4988 124.16C53.9293 136.929 51.0766 149.426 49.854 160.158V107.859C50.6691 104.87 52.2992 101.202 54.6085 97.3988C58.0046 91.4217 62.759 84.9013 67.6493 77.43C71.5888 71.3171 74.3056 65.34 76.6149 60.3139C78.7884 55.2877 80.5543 51.3483 82.0486 49.1748C80.5543 51.3483 76.8866 53.6576 72.5397 57.1895C68.1927 60.7214 63.1665 65.34 59.0913 71.9963C54.0651 79.8751 51.2125 88.2974 49.9899 95.3611V75.3923C51.3483 66.1551 54.3368 52.2992 54.3368 36.134C54.3368 18.8821 49.1748 5.97705 49.1748 0C49.1748 6.11289 44.0128 19.0179 44.0128 36.134C44.0128 52.1634 47.0014 66.1551 48.3598 75.3923V97.1271C47.0014 85.4447 44.0128 71.7246 37.8999 57.597C32.6021 45.5071 25.81 35.9981 19.4254 28.9344C13.1767 21.8706 7.47132 17.3878 3.93942 14.3993C7.33547 17.3878 11.139 23.6365 15.0785 31.7871C19.0179 39.9376 23.3648 50.1257 28.391 61.6723C34.5039 75.7999 39.8017 88.8407 43.4694 100.116C45.9146 107.451 47.4089 114.107 48.2239 119.405V153.094C47.8164 148.883 47.1372 144.808 46.458 140.732C44.8279 131.495 42.5186 122.53 39.6659 113.836C36.8132 105.006 33.553 96.4479 29.6136 88.0257C27.7118 83.8146 25.5383 79.6035 23.3648 75.5282C21.0555 71.4529 18.6104 67.3777 15.486 63.0307C19.1537 67.921 19.6971 73.083 19.1537 78.1092C18.882 80.5543 18.3387 82.9995 17.6595 85.3088C16.9802 87.6181 16.0294 89.7916 15.2143 91.8292C13.9917 94.8178 14.1276 96.9912 15.2143 98.893C16.1652 100.795 17.7953 102.289 19.5613 103.783C22.9573 106.772 26.625 109.489 24.0441 113.564C21.5989 117.639 18.6104 121.443 18.882 125.79C19.0179 127.963 19.8329 130.408 21.8706 133.125C23.9082 135.978 27.1684 139.102 31.9229 143.178C34.9114 145.759 37.3566 148.611 39.6659 151.464C41.8394 154.317 43.6053 157.169 45.0996 159.75C46.458 162.331 47.4089 164.505 48.0881 166.135C48.0881 166.271 48.0881 166.271 48.2239 166.271V204.714C48.0881 203.899 43.877 179.583 29.4777 166.135C15.8935 153.502 3.26021 149.562 0 147.66C3.39605 149.562 22.4139 173.063 28.6627 181.213C38.3075 193.711 48.3598 209.333 48.3598 226.72V279.155H49.854V213.408C50.1257 211.914 50.5332 210.419 51.0766 208.925C52.1633 206.344 53.3859 204.035 55.016 201.861C56.6461 199.688 58.5479 197.922 60.4497 196.156C62.3515 194.526 64.3891 193.032 66.2909 191.673C69.0078 189.771 70.2303 187.598 70.502 185.289C70.9096 182.979 70.3662 180.534 70.0945 178.225C69.8228 177.002 69.687 175.78 69.5511 174.693C69.4153 173.606 69.4153 172.384 69.5511 171.433C69.8228 169.395 70.7737 167.765 73.083 166.814C77.7017 165.048 82.4561 164.097 85.4447 160.701C86.2597 159.886 86.9389 158.799 87.3464 157.577C87.8898 156.354 88.2973 154.86 88.7049 153.094C89.3841 149.562 89.7916 144.943 90.335 138.287C91.0142 130.137 94.5461 122.122 98.3497 116.688C102.017 111.255 105.957 108.13 106.5 107.859L105.685 108.402Z" fill="url(#paint2_linear)"/>
<path d="M438.091 145.079L438.498 145.351L439.313 145.759C439.857 146.03 440.4 146.302 440.943 146.574C441.894 147.117 442.981 147.66 443.932 148.34C445.834 149.562 447.6 150.785 449.366 152.143C452.762 154.86 456.022 157.849 458.874 160.973C461.727 164.233 464.308 167.629 466.617 171.161C468.927 174.693 470.964 178.497 472.73 182.3C474.496 186.104 475.855 190.043 477.213 194.118C477.757 196.156 478.436 198.058 478.843 200.095L479.522 203.084L480.066 206.072C481.017 211.099 481.56 216.125 481.968 221.151V202.133C481.288 198.33 480.066 193.575 478.3 188.277C475.583 180.127 471.644 170.754 467.161 160.565C463.493 152.279 460.369 144.944 457.516 138.967C454.663 132.989 451.811 128.643 449.366 126.333C451.675 128.643 456.022 131.631 460.776 136.657C465.395 141.683 470.557 148.475 474.496 157.305C478.843 167.358 481.153 177.138 482.103 185.56V144.536C481.424 142.227 480.202 139.374 478.436 136.386C475.719 131.767 472.051 126.605 468.248 120.628C465.123 115.738 462.95 111.119 461.184 107.179C459.418 103.24 458.059 100.116 456.837 98.3498C458.059 100.116 460.912 101.882 464.308 104.734C467.704 107.451 471.644 111.119 474.904 116.281C478.843 122.53 481.153 129.05 482.103 134.62V118.862C481.017 111.662 478.707 100.659 478.707 88.0257C478.707 74.4415 482.647 64.3892 482.647 59.6348C482.647 64.3892 486.586 74.5774 486.586 88.0257C486.586 100.659 484.277 111.662 483.19 118.862V135.978C484.277 126.741 486.586 116.009 491.477 104.87C495.688 95.3612 500.985 87.8899 506.012 82.3204C510.902 76.7509 515.521 73.219 518.102 70.9097C515.385 73.219 512.396 78.1093 509.272 84.6297C506.147 91.0143 502.751 99.029 498.812 108.13C494.058 119.269 489.846 129.458 486.994 138.423C485.092 144.264 483.869 149.426 483.19 153.637V180.127C483.598 176.866 484.005 173.606 484.549 170.346C485.771 163.146 487.673 156.083 489.846 149.155C492.02 142.227 494.737 135.57 497.725 128.914C499.22 125.654 500.85 122.394 502.616 119.134C504.517 115.873 506.283 112.749 508.864 109.353C506.012 113.292 505.604 117.232 506.012 121.171C506.283 123.073 506.691 124.975 507.234 126.877C507.778 128.643 508.457 130.408 509.136 132.039C510.087 134.348 509.951 136.114 509.136 137.608C508.457 139.102 507.098 140.325 505.74 141.412C503.023 143.721 500.17 145.894 502.208 149.155C504.11 152.279 506.419 155.403 506.283 158.799C506.147 160.565 505.604 162.467 503.974 164.641C502.48 166.814 499.763 169.395 496.095 172.519C493.65 174.557 491.748 176.731 489.982 179.04C488.216 181.213 486.858 183.523 485.771 185.56C484.684 187.598 484.005 189.364 483.462 190.587V190.722V221.015C483.598 220.336 486.858 201.318 498.269 190.722C508.864 180.806 518.781 177.682 521.498 176.187C518.917 177.682 503.838 196.156 498.948 202.541C491.341 212.321 483.462 224.683 483.462 238.267V279.563H482.375V227.4C482.103 226.177 481.832 224.955 481.424 223.868C480.609 221.83 479.522 220.064 478.3 218.298C476.941 216.668 475.583 215.174 474.089 213.815C472.594 212.457 470.964 211.37 469.47 210.284C467.297 208.789 466.482 207.159 466.21 205.257C465.938 203.491 466.346 201.59 466.617 199.688C466.753 198.737 466.889 197.786 467.025 196.835C467.161 195.884 467.161 195.069 467.025 194.254C466.889 192.624 466.074 191.402 464.172 190.722C460.505 189.364 456.837 188.549 454.392 185.832C453.712 185.153 453.305 184.338 452.897 183.387C452.49 182.436 452.082 181.213 451.811 179.855C451.267 177.138 450.996 173.47 450.452 168.308C449.909 161.788 447.192 155.675 444.204 151.328C441.215 146.981 438.226 144.672 437.683 144.4L438.091 145.079Z" fill="url(#paint3_linear)"/>
<path d="M181.078 262.311C183.251 271.684 186.648 282.28 190.044 292.196H246.418C247.641 288.121 248.999 283.638 250.086 279.02C257.014 251.987 249.678 228.758 243.158 218.162C236.637 207.567 230.932 195.069 240.984 179.583C251.037 164.097 251.988 152.143 251.988 152.143C250.493 146.302 246.011 144.264 234.192 138.695C234.192 138.695 233.513 138.423 232.426 138.151C229.981 148.34 224.683 156.49 215.31 158.12C203.084 160.294 192.081 152.822 186.512 139.781C181.078 141.412 175.101 143.042 172.248 144.672C172.248 144.672 187.191 177.138 190.044 195.477C192.625 213.68 174.15 233.512 181.078 262.311Z" fill="url(#paint4_linear)"/>
<path d="M224.819 198.057C217.076 200.367 209.74 203.084 205.937 203.084C198.33 203.084 186.919 192.352 181.621 198.872C176.323 205.393 175.508 209.74 179.719 212.728C183.93 215.581 197.243 211.642 203.627 212.864C206.48 213.408 216.125 213.951 226.449 213.815C227.264 209.74 227.128 202.133 224.819 198.057Z" fill="url(#paint5_linear)"/>
<path d="M252.123 152.143C250.357 144.944 235.55 158.12 239.218 170.21C242.342 180.534 241.256 194.39 241.256 194.39L255.791 209.061C260.681 203.084 253.617 157.985 252.123 152.143Z" fill="url(#paint6_linear)"/>
<path d="M246.01 194.391C240.44 193.575 232.426 195.613 224.819 198.058C227.128 202.134 227.264 209.741 226.449 213.816C239.218 213.68 252.938 212.458 255.655 209.061C255.655 209.061 262.311 196.836 246.01 194.391Z" fill="url(#paint7_linear)"/>
<path d="M179.72 195.341C175.916 187.598 173.335 177.953 171.162 172.519C166.95 162.195 166.271 147.796 172.112 144.536C182.844 138.966 187.463 157.984 188.142 163.418C188.821 168.852 190.315 181.757 194.391 186.375L179.72 195.341Z" fill="url(#paint8_linear)"/>
<path d="M190.043 177.139C186.104 182.572 179.855 187.327 179.583 195.342C182.98 202.134 187.326 207.431 193.439 206.752C202.405 205.801 205.529 195.206 206.616 185.561C200.639 185.968 193.032 181.214 190.043 177.139Z" fill="url(#paint9_linear)"/>
<path d="M203.627 127.963C201.861 128.778 195.884 134.076 195.884 135.299C195.884 136.657 198.601 146.574 198.601 149.562C198.601 152.551 195.884 165.863 192.216 173.606C191.673 174.829 190.994 175.915 190.179 177.002C193.167 181.077 200.774 185.832 206.751 185.289C207.159 180.942 207.295 176.866 207.295 173.878C207.295 173.878 207.974 151.736 208.925 150.241C209.876 148.747 209.876 146.438 209.876 144.4C209.876 140.597 209.876 140.325 209.876 140.325C209.876 140.325 211.234 140.189 211.37 137.88C211.37 137.744 211.37 137.744 211.37 137.608C211.234 135.163 205.393 127.284 203.627 127.963Z" fill="url(#paint10_linear)"/>
<path d="M350.336 137.744C350.336 159.207 350.336 202.269 350.336 202.269C350.336 202.269 371.8 202.948 371.256 202.269C370.577 201.59 371.256 172.248 371.256 172.248L350.336 137.744Z" fill="url(#paint11_linear)"/>
<path d="M392.991 209.197C394.757 221.287 393.67 235.007 392.991 240.169C392.312 245.331 376.962 291.789 376.962 291.789H414.318L424.642 242.615L411.058 204.986L392.991 209.197Z" fill="url(#paint12_linear)"/>
<path d="M392.992 209.197C394.757 221.287 393.671 235.007 392.992 240.169C392.312 245.331 373.974 292.197 373.974 292.197H414.319L424.643 242.615L411.058 204.986L392.992 209.197Z" fill="url(#paint13_linear)"/>
<path d="M436.868 196.428C442.302 213.68 467.025 219.249 460.233 247.097C455.342 267.201 445.29 292.332 445.29 292.332H398.696C398.696 292.332 413.367 248.591 413.367 242.75C413.367 236.909 404.13 207.159 404.13 207.159L436.868 196.428Z" fill="url(#paint14_linear)"/>
<path d="M357.944 123.209C352.511 125.79 347.484 137.472 352.511 148.476C357.537 159.479 358.216 157.441 360.118 166.135C362.019 174.693 361.34 179.448 376.962 190.179C392.72 200.911 392.176 203.763 392.991 209.197C393.671 214.631 437.955 213.544 437.276 193.032C436.597 172.52 437.683 148.883 424.507 137.744C411.33 126.469 357.944 123.209 357.944 123.209Z" fill="url(#paint15_linear)"/>
<path d="M352.375 97.8066V159.343C352.375 159.343 374.653 147.389 374.517 135.707C374.381 124.024 364.464 97.9425 364.464 97.9425H352.375V97.8066Z" fill="url(#paint16_linear)"/>
<path d="M368.132 134.756C368.132 134.756 371.12 139.51 372.071 141.684C373.022 143.721 368.539 152.958 370.034 160.701C371.528 168.58 381.173 167.222 383.346 160.701C384.025 158.8 385.791 144.808 385.791 144.808V121.851L368.132 134.756Z" fill="url(#paint17_linear)"/>
<path d="M372.072 141.548C378.32 134.484 384.841 164.234 374.517 165.728C374.517 165.728 374.517 165.728 374.653 165.728L376.147 165.864C379.136 165.864 382.396 163.826 383.482 160.43C384.162 158.528 385.928 144.536 385.928 144.536V121.579L368.268 134.484C368.132 134.756 371.121 139.51 372.072 141.548Z" fill="#CB9EAE"/>
<path d="M355.091 96.0409C352.103 114.923 355.363 132.447 364.464 134.484C373.566 136.522 386.607 126.605 386.607 117.776C386.607 108.946 395.436 85.9885 385.384 80.8265C375.468 75.5287 356.993 83.9509 355.091 96.0409Z" fill="url(#paint18_linear)"/>
<path d="M362.698 94.275C362.698 94.275 357.944 98.2144 354.412 100.388C350.88 102.426 351.831 90.4714 358.487 84.9019C365.279 79.3324 374.109 74.4421 377.777 77.7023C377.777 77.7023 389.052 74.5779 395.844 86.1245C402.636 97.6711 403.179 107.995 405.353 110.848C407.526 113.7 411.058 115.466 409.428 120.9C409.428 120.9 421.382 118.455 423.284 126.741C425.05 135.028 424.506 137.744 424.506 137.744C424.506 137.744 420.839 134.892 413.096 132.175C413.096 132.175 407.934 136.25 403.043 136.25C398.153 136.25 391.904 156.083 383.346 156.083L383.21 108.81C383.21 108.674 363.649 106.229 362.698 94.275Z" fill="url(#paint19_linear)"/>
<path d="M253.209 194.798C230.524 218.434 211.098 290.431 211.098 290.431H243.564L263.941 242.614L253.209 194.798Z" fill="url(#paint20_linear)"/>
<path d="M371.257 198.737C366.503 193.304 341.236 175.644 309.042 177.546C280.651 179.312 257.693 188.006 253.21 194.798C249.95 199.824 257.15 233.513 262.04 246.825C267.066 260.274 269.24 274.537 269.24 286.763C269.24 286.763 349.522 286.355 349.93 286.763C350.337 287.17 359.846 257.149 361.205 242.207C362.563 227.264 359.711 210.691 371.257 198.737Z" fill="url(#paint21_linear)"/>
<path d="M327.787 149.562C327.787 149.562 328.195 174.557 327.787 182.029C327.38 189.5 315.833 196.156 311.622 196.428C307.275 196.564 297.902 190.315 296.408 179.719V157.17L327.787 149.562Z" fill="url(#paint22_linear)"/>
<path d="M327.923 163.147C327.923 155.947 327.787 149.562 327.787 149.562L296.272 157.034V175.508C298.853 187.055 316.377 183.931 320.452 172.927C322.897 166.679 324.935 164.913 327.923 163.147Z" fill="#CB9EAE"/>
<path d="M287.985 139.918C289.208 158.256 296.679 175.916 308.362 174.014C323.032 171.705 327.515 149.427 326.836 137.337C326.293 125.247 319.365 117.64 308.905 117.64C298.988 117.775 287.034 124.432 287.985 139.918Z" fill="url(#paint23_linear)"/>
<path d="M330.368 146.031C329.553 149.698 327.787 152.415 326.428 152.144C325.07 151.872 324.526 148.748 325.341 145.08C326.156 141.412 327.922 138.695 329.281 138.967C330.639 139.239 331.183 142.363 330.368 146.031Z" fill="url(#paint24_linear)"/>
<path d="M288.257 142.77C286.084 139.374 285.812 138.016 286.084 132.31C286.22 126.605 290.974 126.469 290.974 124.024C290.838 121.579 293.963 115.059 306.596 114.515C319.229 113.972 318.414 119.813 322.354 120.221C326.293 120.628 332.27 124.567 329.418 138.967C329.418 138.967 326.022 139.238 324.663 146.166C324.527 146.71 323.848 146.846 323.576 146.438C323.169 145.895 322.761 144.944 322.354 143.721C321.403 140.189 317.599 145.487 316.92 138.559C316.377 133.669 304.423 142.634 295.457 134.62C295.457 134.62 294.099 136.386 290.295 136.25C287.986 136.386 288.257 142.77 288.257 142.77Z" fill="#601DC0"/>
<path d="M296.272 208.926C296.272 208.926 297.359 210.284 299.261 207.296C301.162 204.307 307.819 195.342 310.128 196.157C305.509 195.206 297.631 189.093 296.272 179.584V178.769C292.604 179.312 288.937 179.856 285.676 180.671C284.726 185.968 288.665 203.085 296.272 208.926Z" fill="#999999"/>
<path d="M327.788 182.029C327.38 188.549 318.686 194.391 313.524 196.021C315.969 195.07 324.799 206.752 326.293 209.333C327.788 211.914 330.64 208.382 333.493 201.318C335.531 196.156 338.655 187.191 337.297 180.806C334.308 179.991 331.184 179.312 327.788 178.633C327.924 179.991 327.924 181.078 327.788 182.029Z" fill="#999999"/>
<path d="M296.272 179.583V174.149C291.518 176.187 287.171 177.953 286.763 180.67C285.812 185.968 290.023 201.318 296.272 206.752C296.272 206.752 297.359 208.11 299.261 205.121C301.162 202.133 307.819 195.341 310.128 196.292C305.509 195.205 297.63 189.228 296.272 179.583Z" fill="url(#paint25_linear)"/>
<path d="M335.666 178.633C334.308 175.644 330.097 173.335 327.923 172.248C327.923 176.187 327.923 179.855 327.787 181.893C327.38 188.413 318.686 194.254 313.524 195.885C315.969 194.934 324.799 204.307 326.293 206.888C327.787 209.469 329.689 206.48 332.813 199.416C336.074 192.353 337.84 183.523 335.666 178.633Z" fill="url(#paint26_linear)"/>
<path d="M386.879 271.82C386.879 251.172 380.901 209.605 371.257 198.737C371.257 198.737 356.314 206.752 351.56 232.154C350.201 239.762 352.51 261.36 353.19 270.598L386.879 271.82Z" fill="url(#paint27_linear)"/>
<path d="M328.466 292.196C328.466 292.196 367.181 292.196 373.837 292.196C380.629 292.196 387.829 286.763 386.742 271.82C385.656 256.877 361.34 259.051 353.054 270.462L328.059 274.265L328.466 292.196Z" fill="url(#paint28_linear)"/>
<path d="M305.645 291.381L307.818 289.344L314.339 291.653C315.425 292.06 316.648 292.196 317.87 292.196H330.775C330.775 292.196 336.888 290.838 337.16 283.638C337.296 276.439 331.183 274.265 328.466 274.265H314.203C313.524 274.265 312.844 274.129 312.029 273.993L301.977 271.82C300.483 271.548 298.988 271.82 297.63 272.499L291.925 275.759C290.838 276.439 289.751 277.118 288.936 278.069L278.476 288.528C277.118 289.887 278.069 292.06 279.971 292.06H303.471C304.15 292.196 304.965 291.925 305.645 291.381Z" fill="url(#paint29_linear)"/>
<path d="M426.001 140.325C416.22 134.755 399.24 150.649 402.907 169.667C406.575 188.549 385.791 212.05 385.791 212.05C385.791 212.05 362.291 221.559 352.782 223.324C355.091 226.585 357.672 231.339 358.759 237.452C374.245 236.23 396.387 232.969 405.353 225.498C418.937 214.223 433.336 172.52 433.336 159.343C433.472 143.857 426.001 140.325 426.001 140.325Z" fill="url(#paint30_linear)"/>
<path d="M350.337 223.46C343.545 223.46 319.908 223.46 319.908 223.46C319.908 223.46 298.174 230.796 297.63 232.018C297.087 233.241 296 240.712 297.63 242.478C299.26 244.244 310.399 247.368 313.116 246.825C315.969 246.282 337.975 238.131 343.001 238.131C344.767 238.131 350.88 237.995 358.759 237.316C357.537 231.203 354.956 226.313 352.782 223.188C351.831 223.324 351.016 223.46 350.337 223.46Z" fill="url(#paint31_linear)"/>
<path d="M155.268 203.22C155.268 203.22 162.875 209.197 170.754 203.22C178.497 197.243 173.199 186.919 173.199 186.919L155.404 196.428V203.22H155.268Z" fill="url(#paint32_linear)"/>
<path d="M166.271 146.71V191.81H151.6V149.155L166.271 146.71Z" fill="url(#paint33_linear)"/>
<path d="M142.362 258.915C141.004 266.386 132.989 276.982 127.827 292.332H157.033C159.886 273.993 162.331 249.406 158.392 227.399H141.547C143.042 234.735 143.721 251.715 142.362 258.915Z" fill="url(#paint34_linear)"/>
<path d="M114.379 257.285C114.379 257.285 117.775 273.722 120.085 292.332H127.828C132.99 277.118 141.004 266.522 142.363 258.915C143.721 251.851 143.042 234.871 141.548 227.399H115.194L114.379 257.285Z" fill="url(#paint35_linear)"/>
<path d="M141.548 227.4C141.412 226.449 141.14 225.634 140.868 225.091H90.1992C90.8784 249.542 92.7802 273.722 94.0028 292.333H127.827C132.989 277.118 141.004 266.523 142.363 258.915C143.721 251.716 143.042 234.736 141.548 227.4Z" fill="url(#paint36_linear)"/>
<path d="M124.704 106.5C94.6825 98.485 74.442 111.798 71.1818 131.087C68.1933 148.611 90.1997 203.083 90.1997 224.954C90.1997 224.954 125.79 243.293 158.392 227.263C158.392 227.263 153.502 203.898 158.392 183.25C163.283 162.602 169.803 150.784 164.234 135.977C159.343 123.072 138.695 110.303 124.704 106.5Z" fill="url(#paint37_linear)"/>
<path d="M135.978 86.667C135.978 86.667 124.703 100.93 119.949 105.413C115.194 109.896 124.024 119.269 130.68 123.208C135.163 125.789 144.4 128.642 141.683 120.627C141.683 120.627 140.189 116.145 147.66 109.624C147.525 109.624 139.102 84.6293 135.978 86.667Z" fill="url(#paint38_linear)"/>
<path d="M147.525 109.625C147.525 109.625 143.585 98.0782 140.189 91.2861L136.522 93.0521C132.175 101.882 131.496 118.455 141.548 120.628C141.548 120.628 139.918 116.009 147.525 109.625Z" fill="#CB9EAE"/>
<path d="M140.325 84.0863C141.276 78.6526 136.386 78.2451 134.891 82.7279C133.125 87.8899 135.027 91.5576 137.065 90.3351C137.065 90.3351 133.261 102.017 138.016 109.081C142.906 116.145 149.155 113.428 156.898 105.821C163.554 99.3006 167.901 91.1501 168.58 88.1616C170.346 80.1469 161.924 73.4906 154.045 74.034C144.536 74.4415 140.325 84.0863 140.325 84.0863Z" fill="url(#paint39_linear)"/>
<path d="M140.325 84.0867C140.054 87.3469 140.597 89.792 142.363 88.7053C144.265 87.6185 148.747 81.234 152.687 85.8526C156.762 90.4712 160.022 94.8182 167.222 94.0031C176.459 93.0522 178.633 80.4189 170.482 78.1096C170.482 78.1096 174.014 73.7626 167.765 71.725C161.924 69.8232 161.788 71.0458 157.713 66.4272C155.404 63.8462 141.412 65.2046 137.608 79.6039C137.608 79.7397 140.869 79.1963 140.325 84.0867Z" fill="url(#paint40_linear)"/>
<path d="M94.4106 176.866C94.6822 170.617 98.6217 154.452 104.055 143.992C109.489 133.668 106.772 120.356 99.4367 115.058C92.1013 109.896 81.7773 110.847 76.8869 118.046C63.7103 137.472 67.5138 181.077 74.7135 195.884C76.0719 198.872 79.468 200.774 84.0866 201.861C74.0343 197.378 83.9507 174.557 94.4106 176.866Z" fill="url(#paint41_linear)"/>
<path d="M133.125 194.662L152.822 170.889C153.637 169.802 154.996 169.395 156.354 169.802L189.771 179.04C190.586 179.311 190.858 180.262 190.179 180.942L164.912 203.763C164.369 204.306 163.69 204.442 162.875 204.306L133.94 197.514C132.718 196.971 132.31 195.612 133.125 194.662Z" fill="url(#paint42_linear)"/>
<path d="M156.762 185.289C155.675 182.028 152.279 179.583 150.377 179.04C149.019 178.632 138.695 178.768 133.125 178.904C130.952 178.904 128.914 179.583 127.012 180.67C125.247 181.757 123.073 182.979 121.986 182.979C120.085 182.979 104.599 182.979 104.599 182.979C104.599 182.979 99.8441 179.311 94.2745 176.866C83.8147 174.421 73.8982 197.243 83.8147 201.861C100.659 206.072 133.805 199.959 147.66 195.205C150.785 194.118 153.502 192.216 155.403 189.5C156.49 188.141 157.169 186.511 156.762 185.289Z" fill="url(#paint43_linear)"/>
<path d="M38.7151 292.197L94.682 291.925L150.649 291.789L262.447 291.518L374.381 291.789L430.348 291.925L486.179 292.197L430.348 292.604L374.381 292.74L262.447 292.876L150.649 292.604H94.682L38.7151 292.197Z" fill="#390F76"/>
<path d="M274.944 296H322.625C325.342 296 327.515 293.827 327.515 291.11C327.515 289.888 326.564 288.801 325.206 288.801H274.808C273.586 288.801 272.499 289.752 272.499 291.11V293.827C272.635 295.05 273.722 296 274.944 296Z" fill="url(#paint44_linear)"/>
<path d="M190.451 296H290.023C293.826 296 296.679 292.332 295.592 288.665L278.069 224.683C276.982 220.472 273.178 217.619 268.831 217.619H169.259C165.456 217.619 162.603 221.287 163.69 224.955L181.213 288.936C182.436 293.147 186.239 296 190.451 296Z" fill="url(#paint45_linear)"/>
<path d="M482.783 246.418C481.289 246.825 479.251 248.456 476.942 250.765C474.632 252.938 472.051 255.519 468.927 257.965C467.025 259.459 465.123 260.817 463.222 262.176C461.456 263.534 459.69 264.757 458.06 266.115C454.935 268.696 452.49 271.141 451.675 272.907C452.49 271.005 452.898 267.609 454.392 263.534C455.207 261.496 456.294 259.323 457.788 257.014C459.282 254.84 461.184 252.803 463.493 250.901C467.433 248.048 471.644 246.961 475.176 246.69C478.572 246.418 481.289 246.825 482.783 246.418Z" fill="url(#paint46_linear)"/>
<path d="M450.453 271.412C450.589 269.51 449.638 266.522 449.094 262.582C448.415 258.643 448.144 253.752 449.366 248.455C450.86 241.934 453.713 236.5 456.43 232.154C459.147 227.807 461.728 224.682 462.679 222.509C461.728 224.682 461.184 228.757 460.641 233.648C460.098 238.538 459.418 244.379 458.06 250.356C456.973 255.383 455.071 259.594 453.577 263.126C451.811 266.657 450.589 269.51 450.453 271.412Z" fill="url(#paint47_linear)"/>
<path d="M422.741 239.354C424.235 240.033 427.088 240.033 430.62 241.119C434.152 242.07 438.363 244.108 441.895 247.912C446.106 252.666 448.143 258.1 448.958 262.718C449.909 267.337 449.638 271.005 450.045 273.042C449.638 270.869 447.6 267.745 444.883 264.484C442.166 261.088 438.634 257.692 435.238 253.753C432.386 250.628 430.212 247.368 428.175 244.651C426.137 242.07 424.235 240.033 422.741 239.354Z" fill="url(#paint48_linear)"/>
<path d="M468.247 260.682H438.77C437.275 260.682 436.053 262.04 436.189 263.534L439.72 293.555C439.856 294.914 440.943 295.865 442.301 295.865H464.715C466.074 295.865 467.161 294.914 467.296 293.555L470.828 263.534C470.964 262.04 469.742 260.682 468.247 260.682Z" fill="url(#paint49_linear)"/>
<path d="M434.831 260.817L436.189 271.956C436.325 272.636 436.733 273.043 437.412 273.043H469.742C470.421 273.043 470.829 272.636 470.965 271.956L472.323 260.817C472.459 260.138 471.78 259.459 471.101 259.459H436.053C435.238 259.459 434.695 260.138 434.831 260.817Z" fill="url(#paint50_linear)"/>
<path d="M227.4 128.778C220.065 124.16 228.215 99.0289 215.989 89.3841C205.937 81.3694 189.908 87.3465 189.908 102.425C189.908 108.538 189.908 129.322 189.908 138.423C193.847 137.201 196.836 135.978 196.836 135.027V124.703V124.431C190.179 120.22 190.044 102.832 192.896 97.2629C197.515 97.3988 202.541 94.4103 202.541 94.4103C202.541 94.4103 204.986 94.8178 205.394 98.893C205.937 104.055 210.148 106.229 210.148 106.229V119.541C210.148 132.039 213.137 145.759 220.336 146.574C227.536 147.389 228.759 137.88 234.192 138.559C234.056 138.695 234.6 133.397 227.4 128.778Z" fill="#601DC0"/>
<path d="M220 247H229.649V249.5H225.171L229.316 255.371L227.152 261.352L233.656 261.382L233.643 263.882L224.018 263.829L226.489 255.379L220 247Z" fill="#601DC0"/>
<defs>
<linearGradient id="paint0_linear" x1="223.81" y1="125.681" x2="199.125" y2="147.411" gradientUnits="userSpaceOnUse">
<stop stop-color="#F6B3B5"/>
<stop offset="1" stop-color="#FAD1D3"/>
</linearGradient>
<linearGradient id="paint1_linear" x1="205.857" y1="91.0709" x2="194.225" y2="135.779" gradientUnits="userSpaceOnUse">
<stop stop-color="#F6B3B5"/>
<stop offset="1" stop-color="#FAD1D3"/>
</linearGradient>
<linearGradient id="paint2_linear" x1="53.2782" y1="-75.0532" x2="53.2782" y2="409.08" gradientUnits="userSpaceOnUse">
<stop stop-color="#D7FFE3"/>
<stop offset="0.4798" stop-color="#C9F1D5"/>
<stop offset="0.9908" stop-color="#999999"/>
</linearGradient>
<linearGradient id="paint3_linear" x1="479.612" y1="0.505238" x2="479.612" y2="381.923" gradientUnits="userSpaceOnUse">
<stop stop-color="#D7FFE3"/>
<stop offset="0.4798" stop-color="#C9F1D5"/>
<stop offset="0.9908" stop-color="#999999"/>
</linearGradient>
<linearGradient id="paint4_linear" x1="212.501" y1="106.946" x2="212.501" y2="291.663" gradientUnits="userSpaceOnUse">
<stop stop-color="#999999"/>
<stop offset="1" stop-color="#F7F7F7"/>
</linearGradient>
<linearGradient id="paint5_linear" x1="195.251" y1="194.714" x2="205.33" y2="210.912" gradientUnits="userSpaceOnUse">
<stop stop-color="#F6B3B5"/>
<stop offset="1" stop-color="#FAD1D3"/>
</linearGradient>
<linearGradient id="paint6_linear" x1="248.048" y1="138.152" x2="248.048" y2="208.857" gradientUnits="userSpaceOnUse">
<stop stop-color="#999999"/>
<stop offset="1" stop-color="#F7F7F7"/>
</linearGradient>
<linearGradient id="paint7_linear" x1="246" y1="249" x2="236" y2="187" gradientUnits="userSpaceOnUse">
<stop stop-color="#999999"/>
<stop offset="1" stop-color="#F7F7F7"/>
</linearGradient>
<linearGradient id="paint8_linear" x1="181.107" y1="133.029" x2="181.107" y2="195.161" gradientUnits="userSpaceOnUse">
<stop stop-color="#999999"/>
<stop offset="1" stop-color="#F7F7F7"/>
</linearGradient>
<linearGradient id="paint9_linear" x1="193.078" y1="171.128" x2="193.078" y2="206.708" gradientUnits="userSpaceOnUse">
<stop stop-color="#999999"/>
<stop offset="1" stop-color="#F7F7F7"/>
</linearGradient>
<linearGradient id="paint10_linear" x1="182.203" y1="156.709" x2="213.416" y2="156.709" gradientUnits="userSpaceOnUse">
<stop stop-color="#F6B3B5"/>
<stop offset="1" stop-color="#FAD1D3"/>
</linearGradient>
<linearGradient id="paint11_linear" x1="360.677" y1="217.853" x2="362.64" y2="119.566" gradientUnits="userSpaceOnUse">
<stop stop-color="#601DC0"/>
<stop offset="0.2793" stop-color="#823CE7"/>
<stop offset="0.604167" stop-color="#9A5DF2"/>
<stop offset="0.9908" stop-color="#601DC0"/>
</linearGradient>
<linearGradient id="paint12_linear" x1="400.415" y1="312.301" x2="401.448" y2="180.864" gradientUnits="userSpaceOnUse">
<stop stop-color="#001462"/>
<stop offset="0.0686931" stop-color="#081E71"/>
<stop offset="0.2519" stop-color="#193595"/>
<stop offset="0.4371" stop-color="#2748B0"/>
<stop offset="0.623" stop-color="#3055C4"/>
<stop offset="0.8101" stop-color="#365CD0"/>
<stop offset="1" stop-color="#385FD4"/>
</linearGradient>
<linearGradient id="paint13_linear" x1="399.268" y1="187.32" x2="399" y2="365" gradientUnits="userSpaceOnUse">
<stop stop-color="#999999"/>
<stop offset="1" stop-color="#F7F7F7"/>
</linearGradient>
<linearGradient id="paint14_linear" x1="430" y1="177" x2="448.5" y2="271" gradientUnits="userSpaceOnUse">
<stop stop-color="#999999"/>
<stop offset="1" stop-color="#F7F7F7"/>
</linearGradient>
<linearGradient id="paint15_linear" x1="393.347" y1="232.916" x2="394.234" y2="98.2664" gradientUnits="userSpaceOnUse">
<stop stop-color="#601DC0"/>
<stop offset="0.2793" stop-color="#823CE7"/>
<stop offset="0.604167" stop-color="#9A5DF2"/>
<stop offset="0.9908" stop-color="#601DC0"/>
</linearGradient>
<linearGradient id="paint16_linear" x1="363.452" y1="81.2621" x2="363.452" y2="187.984" gradientUnits="userSpaceOnUse">
<stop stop-color="#2F2F2F"/>
<stop offset="0.4798" stop-color="#414141"/>
<stop offset="0.9908" stop-color="#601DC0"/>
</linearGradient>
<linearGradient id="paint17_linear" x1="387.369" y1="140.222" x2="365.411" y2="155.701" gradientUnits="userSpaceOnUse">
<stop stop-color="#F6B3B5"/>
<stop offset="0.9914" stop-color="#FAD1D3"/>
</linearGradient>
<linearGradient id="paint18_linear" x1="374.317" y1="103.272" x2="357.758" y2="123.07" gradientUnits="userSpaceOnUse">
<stop stop-color="#F6B3B5"/>
<stop offset="0.9914" stop-color="#FAD1D3"/>
</linearGradient>
<linearGradient id="paint19_linear" x1="388.509" y1="55.2992" x2="388.509" y2="193.051" gradientUnits="userSpaceOnUse">
<stop stop-color="#2F2F2F"/>
<stop offset="0.4798" stop-color="#414141"/>
<stop offset="0.9908" stop-color="#601DC0"/>
</linearGradient>
<linearGradient id="paint20_linear" x1="221.242" y1="206.919" x2="258.04" y2="294.166" gradientUnits="userSpaceOnUse">
<stop stop-color="#B9B9B9"/>
<stop offset="1" stop-color="#999999"/>
</linearGradient>
<linearGradient id="paint21_linear" x1="311.856" y1="148" x2="311.856" y2="337.667" gradientUnits="userSpaceOnUse">
<stop stop-color="#E8E8E8"/>
<stop offset="0.4798" stop-color="#999999"/>
<stop offset="0.9908" stop-color="#601DC0"/>
</linearGradient>
<linearGradient id="paint22_linear" x1="332.891" y1="165.52" x2="291.855" y2="181.718" gradientUnits="userSpaceOnUse">
<stop stop-color="#F6B3B5"/>
<stop offset="0.9914" stop-color="#FAD1D3"/>
</linearGradient>
<linearGradient id="paint23_linear" x1="310.083" y1="111.877" x2="304.324" y2="172.351" gradientUnits="userSpaceOnUse">
<stop stop-color="#F6B3B5"/>
<stop offset="0.9914" stop-color="#FAD1D3"/>
</linearGradient>
<linearGradient id="paint24_linear" x1="304.214" y1="228.243" x2="329.78" y2="138.76" gradientUnits="userSpaceOnUse">
<stop stop-color="#8CC6FF"/>
<stop offset="1" stop-color="#F6B3B5"/>
</linearGradient>
<linearGradient id="paint25_linear" x1="291.14" y1="178.321" x2="301.572" y2="210.281" gradientUnits="userSpaceOnUse">
<stop stop-color="#B9B9B9"/>
<stop offset="1" stop-color="#999999"/>
</linearGradient>
<linearGradient id="paint26_linear" x1="317.959" y1="176.755" x2="330.102" y2="210.608" gradientUnits="userSpaceOnUse">
<stop stop-color="#B9B9B9"/>
<stop offset="1" stop-color="#999999"/>
</linearGradient>
<linearGradient id="paint27_linear" x1="358" y1="208" x2="388.5" y2="272" gradientUnits="userSpaceOnUse">
<stop stop-color="#B9B9B9"/>
<stop offset="1" stop-color="#999999"/>
</linearGradient>
<linearGradient id="paint28_linear" x1="333" y1="194.5" x2="377.5" y2="289" gradientUnits="userSpaceOnUse">
<stop stop-color="#B9B9B9"/>
<stop offset="1" stop-color="#999999"/>
</linearGradient>
<linearGradient id="paint29_linear" x1="307.475" y1="293.723" x2="307.475" y2="268.502" gradientUnits="userSpaceOnUse">
<stop stop-color="#F6B3B5"/>
<stop offset="0.9914" stop-color="#FAD1D3"/>
</linearGradient>
<linearGradient id="paint30_linear" x1="392.583" y1="260.615" x2="393.755" y2="111.595" gradientUnits="userSpaceOnUse">
<stop stop-color="#601DC0"/>
<stop offset="0.2793" stop-color="#823CE7"/>
<stop offset="0.604167" stop-color="#9A5DF2"/>
<stop offset="0.9908" stop-color="#601DC0"/>
</linearGradient>
<linearGradient id="paint31_linear" x1="334.017" y1="256.519" x2="322.499" y2="223.042" gradientUnits="userSpaceOnUse">
<stop stop-color="#F6B3B5"/>
<stop offset="0.9914" stop-color="#FAD1D3"/>
</linearGradient>
<linearGradient id="paint32_linear" x1="165.123" y1="181.822" x2="165.123" y2="214.7" gradientUnits="userSpaceOnUse">
<stop stop-color="#E8E8E8"/>
<stop offset="0.4798" stop-color="#999999"/>
<stop offset="0.9908" stop-color="#601DC0"/>
</linearGradient>
<linearGradient id="paint33_linear" x1="158.94" y1="134.585" x2="158.94" y2="212.8" gradientUnits="userSpaceOnUse">
<stop stop-color="#E8E8E8"/>
<stop offset="0.4798" stop-color="#999999"/>
<stop offset="0.9908" stop-color="#601DC0"/>
</linearGradient>
<linearGradient id="paint34_linear" x1="144.11" y1="214.246" x2="143.88" y2="346.537" gradientUnits="userSpaceOnUse">
<stop stop-color="#999999"/>
<stop offset="1" stop-color="#F7F7F7"/>
</linearGradient>
<linearGradient id="paint35_linear" x1="52.3903" y1="244.754" x2="286.013" y2="289.602" gradientUnits="userSpaceOnUse">
<stop offset="0.1048" stop-color="#001462"/>
<stop offset="0.2974" stop-color="#142E8A"/>
<stop offset="0.49" stop-color="#2343AA"/>
<stop offset="0.6752" stop-color="#2F53C1"/>
<stop offset="0.8491" stop-color="#365CCF"/>
<stop offset="1" stop-color="#385FD4"/>
</linearGradient>
<linearGradient id="paint36_linear" x1="116.605" y1="211.469" x2="116.605" y2="292.1" gradientUnits="userSpaceOnUse">
<stop stop-color="#999999"/>
<stop offset="1" stop-color="#F7F7F7"/>
</linearGradient>
<linearGradient id="paint37_linear" x1="118.662" y1="69.2541" x2="118.662" y2="294.203" gradientUnits="userSpaceOnUse">
<stop stop-color="#E8E8E8"/>
<stop offset="0.4798" stop-color="#999999"/>
<stop offset="0.9908" stop-color="#601DC0"/>
</linearGradient>
<linearGradient id="paint38_linear" x1="130.487" y1="89.0821" x2="135.212" y2="127.429" gradientUnits="userSpaceOnUse">
<stop stop-color="#F6B3B5"/>
<stop offset="1" stop-color="#FAD1D3"/>
</linearGradient>
<linearGradient id="paint39_linear" x1="169.108" y1="67.8169" x2="133.669" y2="107.981" gradientUnits="userSpaceOnUse">
<stop stop-color="#F6B3B5"/>
<stop offset="1" stop-color="#FAD1D3"/>
</linearGradient>
<linearGradient id="paint40_linear" x1="156.579" y1="57.6477" x2="156.579" y2="107.474" gradientUnits="userSpaceOnUse">
<stop stop-color="#2F2F2F"/>
<stop offset="0.4798" stop-color="#414141"/>
<stop offset="0.9908" stop-color="#601DC0"/>
</linearGradient>
<linearGradient id="paint41_linear" x1="87.5435" y1="87.5849" x2="87.5435" y2="243.778" gradientUnits="userSpaceOnUse">
<stop stop-color="#E8E8E8"/>
<stop offset="0.4798" stop-color="#999999"/>
<stop offset="0.9908" stop-color="#601DC0"/>
</linearGradient>
<linearGradient id="paint42_linear" x1="162" y1="158" x2="162.672" y2="213.492" gradientUnits="userSpaceOnUse">
<stop stop-color="#9A5DF2"/>
<stop offset="0.9908" stop-color="#420B92"/>
</linearGradient>
<linearGradient id="paint43_linear" x1="118.348" y1="202.291" x2="118.348" y2="178.149" gradientUnits="userSpaceOnUse">
<stop stop-color="#F6B3B5"/>
<stop offset="1" stop-color="#FAD1D3"/>
</linearGradient>
<linearGradient id="paint44_linear" x1="299.681" y1="296" x2="299.662" y2="288.836" gradientUnits="userSpaceOnUse">
<stop stop-color="#410C8D"/>
<stop offset="0.2793" stop-color="#823CE7"/>
<stop offset="0.9908" stop-color="#601DC0"/>
</linearGradient>
<linearGradient id="paint45_linear" x1="228.858" y1="296" x2="227.892" y2="218.012" gradientUnits="userSpaceOnUse">
<stop stop-color="#410C8D"/>
<stop offset="0.2793" stop-color="#823CE7"/>
<stop offset="0.9908" stop-color="#601DC0"/>
</linearGradient>
<linearGradient id="paint46_linear" x1="467.045" y1="279.152" x2="432.597" y2="263.088" gradientUnits="userSpaceOnUse">
<stop stop-color="#601DC0"/>
<stop offset="0.2793" stop-color="#823CE7"/>
<stop offset="0.604167" stop-color="#9A5DF2"/>
<stop offset="0.9908" stop-color="#601DC0"/>
</linearGradient>
<linearGradient id="paint47_linear" x1="455.514" y1="282.94" x2="436.671" y2="280.774" gradientUnits="userSpaceOnUse">
<stop stop-color="#601DC0"/>
<stop offset="0.2793" stop-color="#823CE7"/>
<stop offset="0.604167" stop-color="#9A5DF2"/>
<stop offset="0.9908" stop-color="#601DC0"/>
</linearGradient>
<linearGradient id="paint48_linear" x1="436.231" y1="280.984" x2="402.875" y2="270.249" gradientUnits="userSpaceOnUse">
<stop stop-color="#601DC0"/>
<stop offset="0.2793" stop-color="#823CE7"/>
<stop offset="0.604167" stop-color="#9A5DF2"/>
<stop offset="0.9908" stop-color="#601DC0"/>
</linearGradient>
<linearGradient id="paint49_linear" x1="471" y1="302.5" x2="444.214" y2="266.722" gradientUnits="userSpaceOnUse">
<stop stop-color="#32B75B"/>
<stop offset="1" stop-color="#CCF4D8"/>
</linearGradient>
<linearGradient id="paint50_linear" x1="472.516" y1="275.605" x2="467.144" y2="255.482" gradientUnits="userSpaceOnUse">
<stop stop-color="#32B75B"/>
<stop offset="1" stop-color="#CCF4D8"/>
</linearGradient>
</defs>
</svg>
