<svg xmlns="http://www.w3.org/2000/svg" viewBox="0 0 30 30"><title>chip</title><g id="2fe25942-4a0f-4b85-ac77-b73739d2793c" data-name="Слой 2"><g id="682eb4a7-10a3-430b-8381-e239d7192098" data-name="Слой 1"><path d="M15,0A15,15,0,1,0,25.61,4.39,15,15,0,0,0,15,0Zm4.15,27.51a8.51,8.51,0,0,0-8.3,0A13.25,13.25,0,0,1,2.5,19.15,8.61,8.61,0,0,0,3.57,15,8.61,8.61,0,0,0,2.5,10.85a13.25,13.25,0,0,1,8.35-8.36A8.51,8.51,0,0,0,15,3.57a8.51,8.51,0,0,0,4.15-1.08,13.3,13.3,0,0,1,8.36,8.36,8.58,8.58,0,0,0,0,8.3,13.3,13.3,0,0,1-8.36,8.36Z" style="fill:#601dc0"/><path d="M15,6.23A8.77,8.77,0,1,0,23.77,15,8.77,8.77,0,0,0,15,6.23ZM15,22A7,7,0,0,1,13.67,8.08a6.9,6.9,0,0,1,4,.42A7,7,0,0,1,15,22Z" style="fill:#601dc0"/><path d="M16.26,15,14.6,11.91h2.89v-1.3H12.41L14.78,15l-2.36,4.4,5.07,0v-1.3h-2.9Z" style="fill:#601dc0"/></g></g></svg>