<svg width="63" height="40" viewBox="0 0 63 40" fill="none" xmlns="http://www.w3.org/2000/svg"><path d="M57.77 8.984l-13.377 1.704-.327-.327c-.132-.197-.263-.394-.263-.656l-.13-1.64a5.641 5.641 0 00-5.247-5.245l-1.64-.131c-.261 0-.458-.132-.655-.263l-1.246-1.049C33.836.46 32.525 0 31.148 0c-1.378 0-2.689.459-3.738 1.377l-1.246 1.05c-.197.13-.394.262-.656.262l-1.64.13a5.642 5.642 0 00-5.245 5.247l-.131 1.639c0 .262-.131.459-.262.656l-.328.327L4.656 8.984h-.131c-2.558 0-4.525 3.41-4.525 8 0 4.524 1.967 7.934 4.656 7.934l14.033-1.836c.065.459.196.984.393 1.377l-4.197 8.918c-.393.721-.262 1.64.263 2.295.524.656 1.311.984 2.163.787l3.345-.656 1.705 3.082c.393.656 1.114 1.115 1.901 1.115h.066c.852 0 1.574-.525 1.902-1.246l3.803-8.131c.328.066.721.131 1.049.131.328 0 .721-.066 1.05-.131l3.802 8.131c.394.721 1.115 1.246 1.902 1.246h.066c.786 0 1.508-.459 1.901-1.115l1.64-3.016 3.475.656c.787.13 1.64-.132 2.164-.787.525-.656.59-1.508.262-2.295l-4.197-8.918a5.44 5.44 0 00.394-1.377l14.164 1.836c2.557 0 4.525-3.41 4.525-7.935.065-4.656-1.902-8.065-4.46-8.065zM4.526 22.623c-.918 0-2.23-2.295-2.23-5.705 0-3.344 1.312-5.574 2.164-5.705l11.869 1.508c-.984 2.033-.787 4.46.787 6.23l1.049 1.246c.131.13.197.328.262.524L4.525 22.623zm19.803 15.016l-1.705-2.95c-.393-.722-1.115-1.115-1.902-1.115-.13 0-.262 0-.393.065l-3.344.722 3.672-7.87c.918.722 1.967 1.247 3.213 1.312l1.64.131c.261 0 .458.132.655.263l1.246 1.049.59.393-3.672 8zm4.59-10.098l-1.246-1.05a3.57 3.57 0 00-1.967-.852l-1.64-.13c-1.704-.132-3.016-1.509-3.147-3.148l-.131-1.64C20.72 20 20.459 19.28 20 18.754l-1.05-1.246a3.479 3.479 0 010-4.524L20 11.738c.459-.525.787-1.246.787-1.968l.131-1.639c.131-1.705 1.508-3.016 3.148-3.147l1.639-.132c.721-.065 1.443-.327 1.967-.852l1.246-1.05c.656-.524 1.443-.852 2.23-.852.786 0 1.573.263 2.229.853L34.623 4a3.57 3.57 0 001.967.852l1.64.132c1.704.13 3.016 1.508 3.147 3.147l.131 1.64c.066.72.328 1.442.853 1.967l1.049 1.246a3.479 3.479 0 010 4.524l-1.05 1.246a3.57 3.57 0 00-.852 1.967l-.131 1.64c-.131 1.705-1.508 3.016-3.148 3.147l-1.639.131c-.721.066-1.443.328-1.967.853l-1.246 1.049c-.656.525-1.443.852-2.23.852a3.286 3.286 0 01-2.229-.852zm13.05 6.033c-.919-.197-1.837.262-2.296 1.114l-1.64 2.886-3.737-7.87c.197-.13.393-.261.59-.393l1.246-1.049c.197-.13.394-.262.656-.262l1.64-.131c1.245-.066 2.36-.59 3.278-1.377l3.738 7.738-3.476-.656zm15.934-10.951l-14.033-1.77c.065-.197.131-.394.262-.525l1.05-1.246c1.508-1.77 1.77-4.262.786-6.23l11.87-1.508c.917.066 2.163 2.36 2.163 5.705 0 3.279-1.312 5.574-2.098 5.574z" fill="#999"/><path d="M40.262 15.279a9.095 9.095 0 00-9.114-9.115c-5.05 0-9.115 4.131-9.115 9.115 0 5.049 4.131 9.114 9.115 9.114 4.983 0 9.114-4.065 9.114-9.114zm-9.114 6.885a6.884 6.884 0 01-6.886-6.885 6.884 6.884 0 016.886-6.886 6.884 6.884 0 016.885 6.886 6.884 6.884 0 01-6.885 6.885z" fill="#999"/><path d="M34.82 13.574l-1.836-.328c-.197-.066-.328-.131-.46-.328l-.918-1.64c-.262-.458-.852-.458-1.114 0l-.918 1.64c-.066.131-.263.262-.46.328l-1.835.328c-.46.065-.656.655-.328 1.049L28.197 16a.51.51 0 01.13.524l-.196 1.837c-.066.459.46.852.853.655l1.704-.787a.724.724 0 01.525 0l1.705.787c.459.197.918-.13.852-.655v-1.902c0-.197.066-.393.132-.525l1.245-1.377c.394-.328.197-.918-.327-.983z" fill="#999"/></svg>