<svg xmlns="http://www.w3.org/2000/svg" viewBox="0 0 25.46 30"><g id="8ceed1d3-f6f5-496e-a5f3-50575f08984c" data-name="Слой 2"><g id="6a0e3219-3f65-4c65-86b2-5016a53859ff" data-name="Слой 1" fill="#601dc0"><path d="M7.15 30h11.16c.15 0 3.63 0 5.68-2.35a6.36 6.36 0 001.26-2.5 6.46 6.46 0 00.1-2.8c-.82-6.56-6.57-12-8.84-13.68L19.3 5.1a.82.82 0 00.12-.2 1.93 1.93 0 00-1.06-2.49l-1.23-.5a2.1 2.1 0 00-.66-1.36 2.07 2.07 0 00-1.4-.55h-4.68a2.07 2.07 0 00-2.06 1.92l-1.23.5A1.93 1.93 0 006 4.91a.82.82 0 00.12.2L9 8.68C6.68 10.34 1 15.8.11 22.36a6.61 6.61 0 00.09 2.8 6.52 6.52 0 001.27 2.5C3.52 30 7 30 7.15 30zm.58-26L9 3.5l1 1.76a.83.83 0 001.11.31.8.8 0 00.4-.48.83.83 0 000-.62L10.1 2a.36.36 0 00-.1-.1.33.33 0 01.14-.19.35.35 0 01.22-.08h4.68a.4.4 0 01.23.08.41.41 0 01.14.21v.15l-1.28 2.38a.87.87 0 00-.1.31.93.93 0 000 .33.75.75 0 00.16.29.72.72 0 00.25.21 1.07 1.07 0 00.4.1.84.84 0 00.74-.45l.94-1.74 1.18.5a.31.31 0 01.11.09.23.23 0 010 .14l-3 3.8c-.65-.07-1.48-.09-2.17-.09a17.18 17.18 0 00-2.1.06l-3-3.8a.27.27 0 010-.15.25.25 0 01.19-.05zM1.78 22.57c.87-7 8-12.53 8.59-12.82a11.66 11.66 0 012.36-.15 12.21 12.21 0 012.34.14c.66.26 7.74 5.81 8.66 12.83a4.7 4.7 0 01-.06 2.11 4.8 4.8 0 01-.94 1.89 6.67 6.67 0 01-4.42 1.79H7.15a6.61 6.61 0 01-4.42-1.82 4.7 4.7 0 01-.91-1.88 4.76 4.76 0 01-.04-2.09z"/><path d="M11.52 25.1v.74a.84.84 0 00.84.84.85.85 0 00.84-.84v-.75a2.56 2.56 0 002.29-2.53V21.4a2.41 2.41 0 00-.42-1.22 2.46 2.46 0 00-1-.84l-.07-.08-.23-.07-.57-.19v-3.35a.91.91 0 01.44.31.87.87 0 01.17.51V17a.84.84 0 00.84.84.85.85 0 00.84-.84v-.55a2.56 2.56 0 00-2.29-2.53v-.68a.85.85 0 00-.84-.84.84.84 0 00-.84.84v.67A2.54 2.54 0 009 16.45v1.16a2.39 2.39 0 00.41 1.18 2.48 2.48 0 00.94.82l.15.08.79.3.2.07v3.3a.85.85 0 01-.81-.86V22a.85.85 0 00-.84-.84A.84.84 0 009 22v.54a2.53 2.53 0 002.49 2.56zm-.79-8.63a.85.85 0 01.81-.86v2.71h-.06l-.24-.09c-.32-.21-.51-.43-.51-.58zm2.56 4.33c.37.25.54.48.54.6v1.16a.87.87 0 01-.17.51.85.85 0 01-.44.31v-2.61z"/></g></g></svg>