<svg xmlns="http://www.w3.org/2000/svg" viewBox="0 0 25.46 30"><title>money</title><g id="8ceed1d3-f6f5-496e-a5f3-50575f08984c" data-name="Слой 2"><g id="6a0e3219-3f65-4c65-86b2-5016a53859ff" data-name="Слой 1"><path d="M7.15,30H18.31c.15,0,3.63,0,5.68-2.35a6.36,6.36,0,0,0,1.26-2.5,6.46,6.46,0,0,0,.1-2.8c-.82-6.56-6.57-12-8.84-13.68L19.3,5.1a.82.82,0,0,0,.12-.2,1.93,1.93,0,0,0-1.06-2.49l-1.23-.5A2.1,2.1,0,0,0,16.47.55,2.07,2.07,0,0,0,15.07,0H10.39A2.07,2.07,0,0,0,8.33,1.92l-1.23.5A1.93,1.93,0,0,0,6,4.91a.82.82,0,0,0,.12.2L9,8.68C6.68,10.34,1,15.8.11,22.36a6.61,6.61,0,0,0,.09,2.8,6.52,6.52,0,0,0,1.27,2.5C3.52,30,7,30,7.15,30ZM7.73,4,9,3.5l1,1.76a.83.83,0,0,0,1.11.31.8.8,0,0,0,.4-.48.83.83,0,0,0,0-.62L10.1,2A.36.36,0,0,0,10,1.9a.33.33,0,0,1,.14-.19.35.35,0,0,1,.22-.08h4.68a.4.4,0,0,1,.23.08.41.41,0,0,1,.14.21l0,.15L14.13,4.45a.87.87,0,0,0-.1.31.93.93,0,0,0,0,.33.75.75,0,0,0,.16.29.72.72,0,0,0,.25.21,1.07,1.07,0,0,0,.4.1.84.84,0,0,0,.74-.45l.94-1.74,1.18.5a.31.31,0,0,1,.11.09.23.23,0,0,1,0,.14l-3,3.8c-.65-.07-1.48-.09-2.17-.09A17.18,17.18,0,0,0,10.54,8l-3-3.8a.27.27,0,0,1,0-.15A.25.25,0,0,1,7.73,4ZM1.78,22.57c.87-7,8-12.53,8.59-12.82a11.66,11.66,0,0,1,2.36-.15,12.21,12.21,0,0,1,2.34.14c.66.26,7.74,5.81,8.66,12.83a4.7,4.7,0,0,1-.06,2.11,4.8,4.8,0,0,1-.94,1.89,6.67,6.67,0,0,1-4.42,1.79H7.15a6.61,6.61,0,0,1-4.42-1.82,4.7,4.7,0,0,1-.91-1.88A4.76,4.76,0,0,1,1.78,22.57Z" style="fill:#601dc0"/><path d="M11.52,25.1v.74a.84.84,0,0,0,.84.84.85.85,0,0,0,.84-.84v-.75a2.56,2.56,0,0,0,2.29-2.53V21.4a2.41,2.41,0,0,0-.42-1.22,2.46,2.46,0,0,0-1-.84L14,19.26l-.23-.07L13.2,19V15.65a.91.91,0,0,1,.44.31.87.87,0,0,1,.17.51V17a.84.84,0,0,0,.84.84.85.85,0,0,0,.84-.84v-.55a2.56,2.56,0,0,0-2.29-2.53v-.68a.85.85,0,0,0-.84-.84.84.84,0,0,0-.84.84v.67A2.54,2.54,0,0,0,9,16.45v1.16a2.39,2.39,0,0,0,.41,1.18,2.48,2.48,0,0,0,.94.82l.15.08.79.3.2.07v3.3a.85.85,0,0,1-.81-.86V22a.85.85,0,0,0-.84-.84A.84.84,0,0,0,9,22v.54a2.53,2.53,0,0,0,2.49,2.56Zm-.79-8.63a.85.85,0,0,1,.81-.86v2.71h-.06l-.24-.09c-.32-.21-.51-.43-.51-.58Zm2.56,4.33c.37.25.54.48.54.6v1.16a.87.87,0,0,1-.17.51.85.85,0,0,1-.44.31V20.77Z" style="fill:#601dc0"/></g></g></svg>