<svg width="30" height="30" viewBox="0 0 30 30" fill="none" xmlns="http://www.w3.org/2000/svg"><path d="M15 0a15 15 0 100 30 15 15 0 000-30zm0 20a4.999 4.999 0 110-9.998A4.999 4.999 0 0115 20zm5.41-11.67a8.6 8.6 0 00-4.5-1.88V1.86a13.15 13.15 0 017.7 3.21l-3.2 3.26zm-6.32-1.88a8.6 8.6 0 00-4.5 1.88L6.35 5.09a13.15 13.15 0 017.74-3.21v4.57zM8.31 9.61a8.6 8.6 0 00-1.88 4.5H1.86a13.15 13.15 0 013.21-7.74l3.24 3.24zm-1.88 6.32a8.6 8.6 0 001.88 4.5l-3.24 3.24a13.15 13.15 0 01-3.21-7.74h4.57zm3.18 5.76a8.6 8.6 0 004.5 1.88v4.57a13.15 13.15 0 01-7.74-3.21l3.24-3.24zm6.32 1.88a8.6 8.6 0 004.5-1.88l3.18 3.24a13.15 13.15 0 01-7.74 3.21l.06-4.57zm5.78-3.16a8.6 8.6 0 001.88-4.5h4.57a13.15 13.15 0 01-3.21 7.74l-3.24-3.24zm1.9-6.32a8.6 8.6 0 00-1.88-4.5l3.24-3.24a13.15 13.15 0 013.21 7.74h-4.57z" fill="#601DC0"/></svg>