<svg width="24" height="28" viewBox="0 0 24 28" fill="none" xmlns="http://www.w3.org/2000/svg">
<path d="M22.15 12.8902L3.14998 1.89022C2.95504 1.77531 2.73313 1.71412 2.50684 1.71291C2.28055 1.71169 2.05799 1.77049 1.86182 1.88331C1.66566 1.99613 1.50291 2.15894 1.39016 2.35514C1.27741 2.55135 1.2187 2.77394 1.21999 3.00022V25.0002C1.22073 25.2236 1.27989 25.4428 1.39161 25.6363C1.50333 25.8297 1.66372 25.9905 1.85683 26.1027C2.04994 26.2149 2.26906 26.2747 2.49241 26.276C2.71576 26.2773 2.93555 26.2202 3.12998 26.1102L22.13 15.1102C22.3238 14.9978 22.485 14.8369 22.5977 14.6432C22.7104 14.4496 22.7708 14.23 22.7728 14.0059C22.7748 13.7819 22.7184 13.5612 22.6092 13.3656C22.5 13.1699 22.3418 13.0061 22.15 12.8902V12.8902Z" stroke="#601DC0" stroke-width="2" stroke-miterlimit="10"/>
</svg>
