<?xml version="1.0" encoding="utf-8"?><svg width="31" height="30" fill="none" xmlns="http://www.w3.org/2000/svg" viewBox="0 0 31 30"><path d="M15.96 0a15 15 0 100 30 15 15 0 000-30zm10.2 23.32l-3.5-.24-3-4.22 1.33-4.11 4.69-1.69 3.42 2.08a13.08 13.08 0 01-2.9 8.18h-.04zm.41-16.11s-.06 0-.07.09l-1.41 4.06-4.75 1.71-3.5-2.57V5.26l3.36-2.67a13.23 13.23 0 016.41 4.62h-.04zM11.76 2.54l3.3 2.71v5.34l-3.45 2.5-4.85-1.73L5.35 7.3a13.16 13.16 0 016.41-4.76zM9.51 23.08l-3.71.25a13.08 13.08 0 01-3-8.25l3.33-2 4.83 1.72 1.39 4.27-2.84 4.01zm2.45 4.46l-1-3.42 2.82-4h4.58l2.82 4-1 3.33c-1.37.48-2.81.723-4.26.72a13.14 13.14 0 01-3.96-.63z" fill="#601DC0"/></svg>