<?xml version="1.0" encoding="utf-8"?><svg xmlns="http://www.w3.org/2000/svg" viewBox="0 0 30 30" width="30" height="30"><g data-name="Слой 2"><g data-name="Слой 1" fill="#601dc0"><path d="M15 0a15 15 0 1010.61 4.39A15 15 0 0015 0zm4.15 27.51a8.51 8.51 0 00-8.3 0 13.25 13.25 0 01-8.35-8.36A8.61 8.61 0 003.57 15a8.61 8.61 0 00-1.07-4.15 13.25 13.25 0 018.35-8.36A8.51 8.51 0 0015 3.57a8.51 8.51 0 004.15-1.08 13.3 13.3 0 018.36 8.36 8.58 8.58 0 000 8.3 13.3 13.3 0 01-8.36 8.36z"/><path d="M15 6.23A8.77 8.77 0 1023.77 15 8.77 8.77 0 0015 6.23zM15 22a7 7 0 01-1.33-13.92 6.9 6.9 0 014 .42A7 7 0 0115 22z"/><path d="M16.26 15l-1.66-3.09h2.89v-1.3h-5.08L14.78 15l-2.36 4.4h5.07v-1.3h-2.9z"/></g></g></svg>