<?xml version="1.0" encoding="utf-8"?><svg viewBox="0 0 63 40" xmlns="http://www.w3.org/2000/svg" xmlns:xlink="http://www.w3.org/1999/xlink"><style>:root>svg{display:none}:root>svg:target{display:block}</style><svg fill="none" viewBox="0 0 31 40" id="arrow-down" xmlns="http://www.w3.org/2000/svg"><path d="M28.25 21.797L15.5 37.547 2.75 21.797M15.5 37.547V2.297" stroke="#fff" stroke-width="4" stroke-linecap="round" stroke-linejoin="round"/></svg><svg viewBox="0 0 7 10" id="arrow-right" xmlns="http://www.w3.org/2000/svg"><path d="M.16 1.175L3.977 5 .16 8.825 1.335 10l5-5-5-5L.16 1.175z"/></svg><svg fill="none" viewBox="0 0 31 30" id="ball" xmlns="http://www.w3.org/2000/svg"><path d="M15.96 0a15 15 0 100 30 15 15 0 000-30zm10.2 23.32l-3.5-.24-3-4.22 1.33-4.11 4.69-1.69 3.42 2.08a13.08 13.08 0 01-2.9 8.18h-.04zm.41-16.11s-.06 0-.07.09l-1.41 4.06-4.75 1.71-3.5-2.57V5.26l3.36-2.67a13.23 13.23 0 016.41 4.62h-.04zM11.76 2.54l3.3 2.71v5.34l-3.45 2.5-4.85-1.73L5.35 7.3a13.16 13.16 0 016.41-4.76zM9.51 23.08l-3.71.25a13.08 13.08 0 01-3-8.25l3.33-2 4.83 1.72 1.39 4.27-2.84 4.01zm2.45 4.46l-1-3.42 2.82-4h4.58l2.82 4-1 3.33c-1.37.48-2.81.723-4.26.72a13.14 13.14 0 01-3.96-.63z" fill="#601DC0"/></svg><svg viewBox="0 0 30 30" id="chip" xmlns="http://www.w3.org/2000/svg"><g data-name="Слой 2"><g data-name="Слой 1" fill="#601dc0"><path d="M15 0a15 15 0 1010.61 4.39A15 15 0 0015 0zm4.15 27.51a8.51 8.51 0 00-8.3 0 13.25 13.25 0 01-8.35-8.36A8.61 8.61 0 003.57 15a8.61 8.61 0 00-1.07-4.15 13.25 13.25 0 018.35-8.36A8.51 8.51 0 0015 3.57a8.51 8.51 0 004.15-1.08 13.3 13.3 0 018.36 8.36 8.58 8.58 0 000 8.3 13.3 13.3 0 01-8.36 8.36z"/><path d="M15 6.23A8.77 8.77 0 1023.77 15 8.77 8.77 0 0015 6.23zM15 22a7 7 0 01-1.33-13.92 6.9 6.9 0 014 .42A7 7 0 0115 22z"/><path d="M16.26 15l-1.66-3.09h2.89v-1.3h-5.08L14.78 15l-2.36 4.4h5.07v-1.3h-2.9z"/></g></g></svg><svg fill="none" viewBox="0 0 63 40" id="emblem" xmlns="http://www.w3.org/2000/svg"><path d="M57.77 8.984l-13.377 1.704-.327-.327c-.132-.197-.263-.394-.263-.656l-.13-1.64a5.641 5.641 0 00-5.247-5.245l-1.64-.131c-.261 0-.458-.132-.655-.263l-1.246-1.049C33.836.46 32.525 0 31.148 0c-1.378 0-2.689.459-3.738 1.377l-1.246 1.05c-.197.13-.394.262-.656.262l-1.64.13a5.642 5.642 0 00-5.245 5.247l-.131 1.639c0 .262-.131.459-.262.656l-.328.327L4.656 8.984h-.131c-2.558 0-4.525 3.41-4.525 8 0 4.524 1.967 7.934 4.656 7.934l14.033-1.836c.065.459.196.984.393 1.377l-4.197 8.918c-.393.721-.262 1.64.263 2.295.524.656 1.311.984 2.163.787l3.345-.656 1.705 3.082c.393.656 1.114 1.115 1.901 1.115h.066c.852 0 1.574-.525 1.902-1.246l3.803-8.131c.328.066.721.131 1.049.131.328 0 .721-.066 1.05-.131l3.802 8.131c.394.721 1.115 1.246 1.902 1.246h.066c.786 0 1.508-.459 1.901-1.115l1.64-3.016 3.475.656c.787.13 1.64-.132 2.164-.787.525-.656.59-1.508.262-2.295l-4.197-8.918a5.44 5.44 0 00.394-1.377l14.164 1.836c2.557 0 4.525-3.41 4.525-7.935.065-4.656-1.902-8.065-4.46-8.065zM4.526 22.623c-.918 0-2.23-2.295-2.23-5.705 0-3.344 1.312-5.574 2.164-5.705l11.869 1.508c-.984 2.033-.787 4.46.787 6.23l1.049 1.246c.131.13.197.328.262.524L4.525 22.623zm19.803 15.016l-1.705-2.95c-.393-.722-1.115-1.115-1.902-1.115-.13 0-.262 0-.393.065l-3.344.722 3.672-7.87c.918.722 1.967 1.247 3.213 1.312l1.64.131c.261 0 .458.132.655.263l1.246 1.049.59.393-3.672 8zm4.59-10.098l-1.246-1.05a3.57 3.57 0 00-1.967-.852l-1.64-.13c-1.704-.132-3.016-1.509-3.147-3.148l-.131-1.64C20.72 20 20.459 19.28 20 18.754l-1.05-1.246a3.479 3.479 0 010-4.524L20 11.738c.459-.525.787-1.246.787-1.968l.131-1.639c.131-1.705 1.508-3.016 3.148-3.147l1.639-.132c.721-.065 1.443-.327 1.967-.852l1.246-1.05c.656-.524 1.443-.852 2.23-.852.786 0 1.573.263 2.229.853L34.623 4a3.57 3.57 0 001.967.852l1.64.132c1.704.13 3.016 1.508 3.147 3.147l.131 1.64c.066.72.328 1.442.853 1.967l1.049 1.246a3.479 3.479 0 010 4.524l-1.05 1.246a3.57 3.57 0 00-.852 1.967l-.131 1.64c-.131 1.705-1.508 3.016-3.148 3.147l-1.639.131c-.721.066-1.443.328-1.967.853l-1.246 1.049c-.656.525-1.443.852-2.23.852a3.286 3.286 0 01-2.229-.852zm13.05 6.033c-.919-.197-1.837.262-2.296 1.114l-1.64 2.886-3.737-7.87c.197-.13.393-.261.59-.393l1.246-1.049c.197-.13.394-.262.656-.262l1.64-.131c1.245-.066 2.36-.59 3.278-1.377l3.738 7.738-3.476-.656zm15.934-10.951l-14.033-1.77c.065-.197.131-.394.262-.525l1.05-1.246c1.508-1.77 1.77-4.262.786-6.23l11.87-1.508c.917.066 2.163 2.36 2.163 5.705 0 3.279-1.312 5.574-2.098 5.574z" fill="#999"/><path d="M40.262 15.279a9.095 9.095 0 00-9.114-9.115c-5.05 0-9.115 4.131-9.115 9.115 0 5.049 4.131 9.114 9.115 9.114 4.983 0 9.114-4.065 9.114-9.114zm-9.114 6.885a6.884 6.884 0 01-6.886-6.885 6.884 6.884 0 016.886-6.886 6.884 6.884 0 016.885 6.886 6.884 6.884 0 01-6.885 6.885z" fill="#999"/><path d="M34.82 13.574l-1.836-.328c-.197-.066-.328-.131-.46-.328l-.918-1.64c-.262-.458-.852-.458-1.114 0l-.918 1.64c-.066.131-.263.262-.46.328l-1.835.328c-.46.065-.656.655-.328 1.049L28.197 16a.51.51 0 01.13.524l-.196 1.837c-.066.459.46.852.853.655l1.704-.787a.724.724 0 01.525 0l1.705.787c.459.197.918-.13.852-.655v-1.902c0-.197.066-.393.132-.525l1.245-1.377c.394-.328.197-.918-.327-.983z" fill="#999"/></svg><svg fill="none" viewBox="0 0 20 16" id="envelope" xmlns="http://www.w3.org/2000/svg"><path d="M20 2c0-1.1-.9-2-2-2H2C.9 0 0 .9 0 2v12c0 1.1.9 2 2 2h16c1.1 0 2-.9 2-2V2zm-2 0l-8 5-8-5h16zm0 12H2V4l8 5 8-5v10z" fill="#601DC0"/></svg><svg viewBox="0 0 14 10" id="menu" xmlns="http://www.w3.org/2000/svg"><path fill-rule="evenodd" clip-rule="evenodd" d="M0 0v1.667h14V0H0zm0 10h9.333V8.333H0V10zm14-4.167H0V4.167h14v1.666z"/></svg><svg viewBox="0 0 25.46 30" id="money" xmlns="http://www.w3.org/2000/svg"><g data-name="Слой 2"><g data-name="Слой 1" fill="#601dc0"><path d="M7.15 30h11.16c.15 0 3.63 0 5.68-2.35a6.36 6.36 0 001.26-2.5 6.46 6.46 0 00.1-2.8c-.82-6.56-6.57-12-8.84-13.68L19.3 5.1a.82.82 0 00.12-.2 1.93 1.93 0 00-1.06-2.49l-1.23-.5a2.1 2.1 0 00-.66-1.36 2.07 2.07 0 00-1.4-.55h-4.68a2.07 2.07 0 00-2.06 1.92l-1.23.5A1.93 1.93 0 006 4.91a.82.82 0 00.12.2L9 8.68C6.68 10.34 1 15.8.11 22.36a6.61 6.61 0 00.09 2.8 6.52 6.52 0 001.27 2.5C3.52 30 7 30 7.15 30zm.58-26L9 3.5l1 1.76a.83.83 0 001.11.31.8.8 0 00.4-.48.83.83 0 000-.62L10.1 2a.36.36 0 00-.1-.1.33.33 0 01.14-.19.35.35 0 01.22-.08h4.68a.4.4 0 01.23.08.41.41 0 01.14.21v.15l-1.28 2.38a.87.87 0 00-.1.31.93.93 0 000 .33.75.75 0 00.16.29.72.72 0 00.25.21 1.07 1.07 0 00.4.1.84.84 0 00.74-.45l.94-1.74 1.18.5a.31.31 0 01.11.09.23.23 0 010 .14l-3 3.8c-.65-.07-1.48-.09-2.17-.09a17.18 17.18 0 00-2.1.06l-3-3.8a.27.27 0 010-.15.25.25 0 01.19-.05zM1.78 22.57c.87-7 8-12.53 8.59-12.82a11.66 11.66 0 012.36-.15 12.21 12.21 0 012.34.14c.66.26 7.74 5.81 8.66 12.83a4.7 4.7 0 01-.06 2.11 4.8 4.8 0 01-.94 1.89 6.67 6.67 0 01-4.42 1.79H7.15a6.61 6.61 0 01-4.42-1.82 4.7 4.7 0 01-.91-1.88 4.76 4.76 0 01-.04-2.09z"/><path d="M11.52 25.1v.74a.84.84 0 00.84.84.85.85 0 00.84-.84v-.75a2.56 2.56 0 002.29-2.53V21.4a2.41 2.41 0 00-.42-1.22 2.46 2.46 0 00-1-.84l-.07-.08-.23-.07-.57-.19v-3.35a.91.91 0 01.44.31.87.87 0 01.17.51V17a.84.84 0 00.84.84.85.85 0 00.84-.84v-.55a2.56 2.56 0 00-2.29-2.53v-.68a.85.85 0 00-.84-.84.84.84 0 00-.84.84v.67A2.54 2.54 0 009 16.45v1.16a2.39 2.39 0 00.41 1.18 2.48 2.48 0 00.94.82l.15.08.79.3.2.07v3.3a.85.85 0 01-.81-.86V22a.85.85 0 00-.84-.84A.84.84 0 009 22v.54a2.53 2.53 0 002.49 2.56zm-.79-8.63a.85.85 0 01.81-.86v2.71h-.06l-.24-.09c-.32-.21-.51-.43-.51-.58zm2.56 4.33c.37.25.54.48.54.6v1.16a.87.87 0 01-.17.51.85.85 0 01-.44.31v-2.61z"/></g></g></svg><svg fill="none" viewBox="0 0 18 18" id="phone" xmlns="http://www.w3.org/2000/svg"><path d="M3.54 2c.06.89.21 1.76.45 2.59l-1.2 1.2c-.41-1.2-.67-2.47-.76-3.79h1.51zm9.86 12.02c.85.24 1.72.39 2.6.45v1.49c-1.32-.09-2.59-.35-3.8-.75l1.2-1.19zM4.5 0H1C.45 0 0 .45 0 1c0 9.39 7.61 17 17 17 .55 0 1-.45 1-1v-3.49c0-.55-.45-1-1-1-1.24 0-2.45-.2-3.57-.57a.84.84 0 00-.31-.05c-.26 0-.51.1-.71.29l-2.2 2.2a15.149 15.149 0 01-6.59-6.59l2.2-2.2c.28-.28.36-.67.25-1.02A11.36 11.36 0 015.5 1c0-.55-.45-1-1-1z" fill="#601DC0"/></svg><svg fill="none" viewBox="0 0 14 20" id="placeholder" xmlns="http://www.w3.org/2000/svg"><path d="M7 0C3.13 0 0 3.13 0 7c0 5.25 7 13 7 13s7-7.75 7-13c0-3.87-3.13-7-7-7zM2 7c0-2.76 2.24-5 5-5s5 2.24 5 5c0 2.88-2.88 7.19-5 9.88C4.92 14.21 2 9.85 2 7z" fill="#601DC0"/><path d="M7 9.5a2.5 2.5 0 100-5 2.5 2.5 0 000 5z" fill="#601DC0"/></svg><svg fill="none" viewBox="0 0 24 28" id="play" xmlns="http://www.w3.org/2000/svg"><path d="M22.15 12.89l-19-11A1.28 1.28 0 001.22 3v22a1.28 1.28 0 001.91 1.11l19-11a1.29 1.29 0 00.02-2.22v0z" stroke="#601DC0" stroke-width="2" stroke-miterlimit="10"/></svg><svg fill="none" viewBox="0 0 30 30" id="roulette" xmlns="http://www.w3.org/2000/svg"><path d="M15 0a15 15 0 100 30 15 15 0 000-30zm0 20a4.999 4.999 0 110-9.998A4.999 4.999 0 0115 20zm5.41-11.67a8.6 8.6 0 00-4.5-1.88V1.86a13.15 13.15 0 017.7 3.21l-3.2 3.26zm-6.32-1.88a8.6 8.6 0 00-4.5 1.88L6.35 5.09a13.15 13.15 0 017.74-3.21v4.57zM8.31 9.61a8.6 8.6 0 00-1.88 4.5H1.86a13.15 13.15 0 013.21-7.74l3.24 3.24zm-1.88 6.32a8.6 8.6 0 001.88 4.5l-3.24 3.24a13.15 13.15 0 01-3.21-7.74h4.57zm3.18 5.76a8.6 8.6 0 004.5 1.88v4.57a13.15 13.15 0 01-7.74-3.21l3.24-3.24zm6.32 1.88a8.6 8.6 0 004.5-1.88l3.18 3.24a13.15 13.15 0 01-7.74 3.21l.06-4.57zm5.78-3.16a8.6 8.6 0 001.88-4.5h4.57a13.15 13.15 0 01-3.21 7.74l-3.24-3.24zm1.9-6.32a8.6 8.6 0 00-1.88-4.5l3.24-3.24a13.15 13.15 0 013.21 7.74h-4.57z" fill="#601DC0"/></svg><svg fill="none" viewBox="0 0 16 18" id="user" xmlns="http://www.w3.org/2000/svg"><path d="M8 0c2.344 0 4.235 1.809 4.235 4.05 0 2.241-1.891 4.05-4.235 4.05-2.344 0-4.235-1.809-4.235-4.05C3.765 1.809 5.656 0 8 0zM8 18c-3.333 0-6.28-1.829-8-4.6C.04 10.557 5.333 9 8 9c2.653 0 7.96 1.557 8 4.4-1.72 2.771-4.667 4.6-8 4.6z" fill="#000"/></svg></svg>